<svg xmlns="http://www.w3.org/2000/svg" width="85.355" height="44" viewBox="0 0 85.355 44">
  <g id="Grupo_3167" data-name="Grupo 3167" transform="translate(-8244.999 365.142)">
    <g id="Grupo_3166" data-name="Grupo 3166" transform="translate(8244.999 -365.142)">
      <path id="Caminho_9017" data-name="Caminho 9017" d="M132.235,129.444a3.056,3.056,0,0,1-2.012-1.318l-.03-.046c-.037-.056-.071-.113-.1-.17-.015-.027-.031-.054-.046-.082-.025-.046-.048-.092-.07-.139s-.037-.077-.055-.116-.025-.062-.037-.094a3.433,3.433,0,0,1-.191-.653h0a3.6,3.6,0,0,1-.064-.667c0-1.165.054-21.226.054-21.226l0,0v-.065l-.429,0a2.916,2.916,0,0,0-3.05,2.785v-.026c-.01,2.608-.077,19.586-.077,21.283,0,0,0,.007,0,.01l-.025.024.025-.015a3.582,3.582,0,0,0,.14.978,3.119,3.119,0,0,0,2.94,2.34,3.161,3.161,0,0,0,3.035-2.8h0l0-.008" transform="translate(-118.796 -95.192)" fill="#ef7355"/>
      <path id="Caminho_9018" data-name="Caminho 9018" d="M138.4,143.247h7.189v5.062c0,1.673.149,3.237-3.561,6.526,5.147-.612,7.066-6.16,7.066-9.278v-5.061h-7.2Z" transform="translate(-124.937 -112.968)" fill="#ef7355"/>
      <path id="Caminho_9019" data-name="Caminho 9019" d="M156.257,102.589l-3.5,2.753v0c0,2.812.1,11.782.1,11.782l3.408-2.751V102.589" transform="translate(-132.095 -94.003)" fill="#ef7355"/>
      <path id="Caminho_9020" data-name="Caminho 9020" d="M135.9,114.985c-.021-.623-.042-1.267-.04-1.9v-.176h-7.439l-3.66,2.818.012.016.03,3.6c0,.094-.006.186-.013.278a3.109,3.109,0,0,1-2.386-3.1c0-.448.008-3.737.018-7.6h9.905v-.014h0l3.407-2.9V94.15c0-4.738-4.667-8.592-10.4-8.592a11.579,11.579,0,0,0-8.868,4.1,8.4,8.4,0,0,0-4.943,7.31v24c0,4.739,4.667,8.593,10.4,8.593a11.762,11.762,0,0,0,6.593-1.951,8.4,8.4,0,0,0,6.344-4.8,12.8,12.8,0,0,0,1.042-4.708c.065-1.042.03-2.1,0-3.117m-11.263,4.963a2.954,2.954,0,0,1-2.834,2.48,2.715,2.715,0,0,1-1.531-.479A3.233,3.233,0,0,1,119,119.342c0-1.673.065-9.175.076-10.416h3c-.01,3.86-.018,7.15-.018,7.6a3.427,3.427,0,0,0,2.583,3.424m.167-21.422V101.7h-2.362c.009-3.125.016-5.665.017-6.264a3.1,3.1,0,0,1,2.345,3.093m-2.954-3.117h.257v.1c0,.716-.008,3.184-.017,6.192H119V98.526A3.133,3.133,0,0,1,121.08,95.5a3.227,3.227,0,0,1,.774-.1m-2.889,6.639h3.129c0,2.074-.011,4.377-.017,6.526H118.94c.009-2.314.018-4.629.026-6.526m13.367,6.406V96.967c0-.061,0-.121-.005-.182l3.065-2.407v11.475Zm-20.455,12.51v-24a8.079,8.079,0,0,1,4.843-7.047,14.447,14.447,0,0,1,1.852-.721,12,12,0,0,1,3.357-.474,11.431,11.431,0,0,1,6.331,1.845,7.748,7.748,0,0,1,3.625,6.331c0,2.6.084,10.541.1,11.653v.02h-9.553c.006-2.15.012-4.452.018-6.526h2.714V98.526a3.443,3.443,0,0,0-2.7-3.448v-.106l-.127.085a3.314,3.314,0,0,0-3.7,2.936l-.006,1.578c-.02,4.983-.071,18.218-.071,19.7a3.568,3.568,0,0,0,1.523,2.961,3.076,3.076,0,0,0,1.829.608,3.39,3.39,0,0,0,3.254-3.5l-.028-3.262h6.85v4.886c0,4.545-4.509,8.243-10.052,8.243s-10.052-3.7-10.052-8.243m23.68-2.885a12.235,12.235,0,0,1-1.011,4.583,7.956,7.956,0,0,1-5.326,4.424,7.916,7.916,0,0,0,3.112-6.122V115.77l3.181-2.5c0,.578.021,1.16.04,1.726.034,1.013.068,2.059,0,3.084" transform="translate(-111.527 -85.558)" fill="#231f20"/>
      <path id="Caminho_9021" data-name="Caminho 9021" d="M176.114,139.5v-.8c0-.632.24-.957.735-.957.479,0,.718.325.718.957v.8Zm0,1.349h3.332v-2.2a2.4,2.4,0,0,0-2.6-2.563,2.455,2.455,0,0,0-2.682,2.563v3.605a2.455,2.455,0,0,0,2.682,2.563c1.658,0,2.58-.82,2.58-2.187v-.94h-1.862v.769a.63.63,0,0,1-.718.7c-.5,0-.735-.308-.735-.906Z" transform="translate(-142.779 -110.764)" fill="#231f20"/>
      <path id="Caminho_9022" data-name="Caminho 9022" d="M273.284,139.5v-.8c0-.632.24-.957.735-.957.478,0,.718.325.718.957v.8Zm0,1.349h3.331v-2.2a2.4,2.4,0,0,0-2.6-2.563,2.455,2.455,0,0,0-2.683,2.563v3.605a2.455,2.455,0,0,0,2.683,2.563c1.657,0,2.58-.82,2.58-2.187v-.94h-1.863v.769a.629.629,0,0,1-.717.7c-.5,0-.735-.308-.735-.906v-1.4Z" transform="translate(-191.26 -110.764)" fill="#231f20"/>
      <path id="Caminho_9023" data-name="Caminho 9023" d="M192.312,142.435v-.24a2.436,2.436,0,0,0-1.64-2.34l-.906-.444c-.5-.256-.752-.581-.752-.974v-.2a.6.6,0,0,1,.649-.615c.427,0,.632.24.632.7v.769h1.811v-1.008c0-1.111-.837-2-2.478-2a2.256,2.256,0,0,0-2.562,2.256v.307a2.409,2.409,0,0,0,1.52,2.307l1.077.512a1.017,1.017,0,0,1,.683.94v.187a.641.641,0,0,1-.7.683.665.665,0,0,1-.735-.7v-.888h-1.9v1.043c0,1.161.94,2.084,2.632,2.084,1.76,0,2.665-1.008,2.665-2.375" transform="translate(-149.19 -110.764)" fill="#231f20"/>
      <path id="Caminho_9024" data-name="Caminho 9024" d="M202.565,141.594v-6.869h1.042v-1.555h-1.042v-3.537h-1.948v3.537H199.9v1.555h.717v5.536a1.2,1.2,0,0,0,1.316,1.333" transform="translate(-155.619 -107.549)" fill="#231f20"/>
      <path id="Caminho_9025" data-name="Caminho 9025" d="M264.288,141.594v-6.869h1.042v-1.555h-1.042v-3.537h-1.948v3.537h-.717v1.555h.717v5.536a1.2,1.2,0,0,0,1.316,1.333" transform="translate(-186.414 -107.549)" fill="#231f20"/>
      <path id="Caminho_9026" data-name="Caminho 9026" d="M209.616,143.368h0c0,.018,0,.034,0,.051v.01h0c.053.9,1.238,1.619,2.7,1.619,1.475,0,2.672-.736,2.7-1.649h0v-6.843H213.05v5.826c0,.632-.24.957-.735.957s-.752-.325-.752-.957v-5.826h-1.948Z" transform="translate(-160.464 -111.002)" fill="#231f20"/>
      <path id="Caminho_9027" data-name="Caminho 9027" d="M248.532,137.76h0c0-.018,0-.034,0-.051V137.7h0c.052-.9,1.238-1.619,2.7-1.619,1.475,0,2.672.735,2.7,1.648h0v6.843h-1.965v-5.826c0-.632-.24-.956-.735-.956s-.752.324-.752.956v5.826h-1.948Z" transform="translate(-179.88 -110.764)" fill="#231f20"/>
      <path id="Caminho_9028" data-name="Caminho 9028" d="M226.143,138.887c0,.632-.256.957-.752.957s-.734-.324-.734-.957v-3.229c0-.632.239-.957.734-.957s.752.325.752.957Zm1.97.972h0V129.524h-1.965v4.135a1.7,1.7,0,0,0-1.486-.752,2,2,0,0,0-1.948,2.238V139.4a3.473,3.473,0,0,0,.04.533c.062.894,1.236,1.607,2.679,1.607,1.483,0,2.685-.752,2.685-1.681" transform="translate(-166.999 -107.494)" fill="#231f20"/>
      <path id="Caminho_9029" data-name="Caminho 9029" d="M239.068,142.437a.909.909,0,0,1-.207.666h0a.545.545,0,0,1-.2.127l-.005,0a.8.8,0,0,1-.27.043h0a.694.694,0,0,1-.25-.045l-.01,0a.545.545,0,0,1-.183-.121.688.688,0,0,1-.188-.5v-.342a1.172,1.172,0,0,1,.5-1.042l.82-.513Zm1.952.742s0-.021,0-.049c0-.009,0-.018,0-.027h0c0-.017,0-.032,0-.051v-4.664a2.169,2.169,0,0,0-2.477-2.255c-1.589,0-2.563.905-2.563,2.153v.974h1.794v-.837c0-.427.222-.632.666-.632a.549.549,0,0,1,.632.615v.718l-1.709.905a2.521,2.521,0,0,0-1.555,2.307v.427a1.619,1.619,0,0,0,.039.342l0,.009a2.291,2.291,0,0,0,2.269,1.538l.009.006h.3c1.388,0,2.519-.653,2.588-1.474Z" transform="translate(-173.533 -110.791)" fill="#231f20"/>
      <path id="Caminho_9030" data-name="Caminho 9030" d="M176.4,111.344c0-.642.243-.972.746-.972s.75.317.761.932v.494l0,0v1.976c0,.642-.26.972-.763.972s-.746-.33-.746-.972Zm3.5,6V110.2l0,0c-.051-.914-1.247-1.646-2.718-1.646s-2.655.725-2.717,1.632a3.505,3.505,0,0,0-.04.541v.065c0,.012,0,.023,0,.035v3.47c0,.013,0,.025,0,.038v.215l.008-.007a2.02,2.02,0,0,0,2.072,2.027,1.645,1.645,0,0,0,1.406-.625v1.475a.839.839,0,0,1-.867.937.766.766,0,0,1-.833-.833V117h-1.8v.729a2.176,2.176,0,0,0,.712,1.666,2.8,2.8,0,0,0,1.978.642,2.872,2.872,0,0,0,2.047-.729,2.642,2.642,0,0,0,.763-1.961" transform="translate(-142.897 -97.03)" fill="#231f20"/>
      <path id="Caminho_9031" data-name="Caminho 9031" d="M187.73,116.255h0c0,.018,0,.035,0,.052v.011h0c.053.913,1.257,1.644,2.739,1.644,1.5,0,2.713-.747,2.741-1.674h0v-6.949h-2v5.916c0,.642-.243.972-.746.972s-.764-.329-.764-.972v-5.916H187.73Z" transform="translate(-149.545 -97.423)" fill="#231f20"/>
      <path id="Caminho_9032" data-name="Caminho 9032" d="M240.738,116.037c-.5,0-.746-.33-.746-.972v-3.557c0-.642.243-.972.746-.972.486,0,.729.33.729.972v3.557c0,.642-.244.972-.729.972m1.978.971a2.521,2.521,0,0,0,.729-1.891v-3.661a2.718,2.718,0,0,0-5.43,0v3.661a2.471,2.471,0,0,0,.746,1.891,3.1,3.1,0,0,0,3.955,0" transform="translate(-174.635 -97.181)" fill="#231f20"/>
      <path id="Caminho_9033" data-name="Caminho 9033" d="M228.2,111.7c0,.642-.261.972-.764.972s-.746-.33-.746-.972v-3.28c0-.642.243-.971.746-.971s.764.329.764.971Zm2,.987h0V102.2H228.2v4.2a1.728,1.728,0,0,0-1.51-.764,2.03,2.03,0,0,0-1.978,2.273v4.32a3.511,3.511,0,0,0,.04.541c.063.907,1.255,1.632,2.72,1.632,1.505,0,2.726-.764,2.726-1.706" transform="translate(-168 -93.86)" fill="#231f20"/>
      <rect id="Retângulo_1731" data-name="Retângulo 1731" width="1.995" height="8.553" transform="translate(44.941 11.985)" fill="#231f20"/>
      <path id="Caminho_9034" data-name="Caminho 9034" d="M202.119,106.53a1.093,1.093,0,1,0-1.093-1.093,1.093,1.093,0,0,0,1.093,1.093" transform="translate(-156.181 -94.931)" fill="#231f20"/>
      <path id="Caminho_9035" data-name="Caminho 9035" d="M211.052,115.675a.926.926,0,0,1-.21.676h0a.56.56,0,0,1-.2.129h-.005a.822.822,0,0,1-.275.043h0a.694.694,0,0,1-.254-.046l-.011,0a.576.576,0,0,1-.186-.123.7.7,0,0,1-.19-.5V115.5a1.19,1.19,0,0,1,.5-1.058l.833-.521Zm1.982.753s0-.021,0-.05c0-.009,0-.018,0-.027h0c0-.017,0-.032,0-.052v-4.736a2.2,2.2,0,0,0-2.516-2.29c-1.613,0-2.6.919-2.6,2.186v.989h1.822v-.85c0-.434.225-.642.677-.642a.557.557,0,0,1,.642.624v.729l-1.735.919a2.56,2.56,0,0,0-1.579,2.343V116a1.635,1.635,0,0,0,.04.347l0,.009a2.326,2.326,0,0,0,2.3,1.562l.009.007h.307c1.41,0,2.557-.664,2.628-1.5Z" transform="translate(-159.529 -97.39)" fill="#231f20"/>
      <path id="Caminho_9036" data-name="Caminho 9036" d="M132.332,119.232h-6.85l.027,3.262a3.263,3.263,0,1,1-6.508,0c0-1.817.077-10.5.078-10.593v-.174h13.251V100.121c0-4.545-4.509-8.242-10.052-8.242s-10.052,3.7-10.052,8.242v24c0,4.545,4.509,8.242,10.052,8.242s10.052-3.7,10.052-8.242ZM119,101.679a3.263,3.263,0,1,1,6.508,0V105.2H119v-3.523Z" transform="translate(-111.877 -88.712)" fill="#f8dfcb"/>
    </g>
  </g>
</svg>
