<svg xmlns="http://www.w3.org/2000/svg" width="120" height="23.419" viewBox="0 0 120 23.419">
  <g id="Placar" transform="translate(-604.579 -363.5)">
    <path id="Caminho_940" data-name="Caminho 940" d="M1339.7,497.423h-5.79c.2-1.233.383-2.427.574-3.619q1.043-6.52,2.086-13.04c.286-1.792.578-3.583.847-5.378.064-.427.2-.61.684-.607,3.672.023,7.345-.03,11.017.03a5.815,5.815,0,0,1,5.677,3.49,6.862,6.862,0,0,1-2.441,8.23,8.867,8.867,0,0,1-.984.608c-.337.182-.694.328-1.085.51l3.106,9.806h-.62c-1.662,0-3.325-.023-4.986.015-.514.012-.688-.177-.816-.638-.683-2.474-1.416-4.934-2.09-7.41a.623.623,0,0,0-.759-.55,17.577,17.577,0,0,1-2.375-.009c-.659-.064-.753.272-.829.78C1340.52,492.216,1340.109,494.789,1339.7,497.423Zm2.064-12.885c.859,0,1.61.013,2.36,0a23.159,23.159,0,0,0,2.885-.118,2.842,2.842,0,0,0,2.419-3.111c-.122-1.405-1.04-2.094-2.8-2.1-.985,0-1.969,0-2.954,0-1.054,0-1.06,0-1.226,1.022C1342.214,481.635,1342,483.043,1341.76,484.537Z" transform="translate(-630.746 -110.927)" fill-rule="evenodd"/>
    <path id="Caminho_941" data-name="Caminho 941" d="M779.142,497.508c.617-1.2,1.213-2.362,1.813-3.523q4.814-9.309,9.618-18.623a.72.72,0,0,1,.757-.456c1.99.015,3.981.022,5.971,0,.448-.006.59.153.672.569q1.646,8.38,3.321,16.754.491,2.47.98,4.941c.022.109.029.222.053.412h-1.755c-1.2,0-2.4-.018-3.594.009-.419.009-.555-.124-.614-.539-.188-1.334-.43-2.66-.656-4.024h-4.676c-1.1,0-2.2.013-3.3-.007a.615.615,0,0,0-.659.408c-.594,1.257-1.2,2.506-1.838,3.742a.781.781,0,0,1-.538.391c-1.758.029-3.517.016-5.275.013A1.548,1.548,0,0,1,779.142,497.508Zm14.451-17.392-4.18,8.521H795Z" transform="translate(-140.333 -111.036)" fill-rule="evenodd"/>
    <path id="Caminho_942" data-name="Caminho 942" d="M1129.016,497.579c.781-1.519,1.5-2.924,2.224-4.326q4.615-8.924,9.224-17.851a.76.76,0,0,1,.792-.494q2.985.031,5.971,0c.412,0,.568.121.647.523q1.637,8.323,3.3,16.641.5,2.5.992,5c.029.145.037.293.064.513h-2.582c-.927,0-1.855-.015-2.783.007-.378.009-.534-.1-.59-.5-.187-1.336-.424-2.664-.646-4.022-.184-.014-.332-.034-.48-.035-2.493,0-4.986,0-7.479-.011a.65.65,0,0,0-.7.428c-.578,1.243-1.188,2.47-1.808,3.692-.09.178-.3.417-.459.42C1132.849,497.59,1131,497.579,1129.016,497.579Zm14.485-17.454-4.188,8.532h5.6C1144.446,485.845,1143.987,483.066,1143.5,480.125Z" transform="translate(-449.623 -111.041)" fill-rule="evenodd"/>
    <path id="Caminho_943" data-name="Caminho 943" d="M491.006,490.213l-1.179,7.327h-5.779c.192-1.226.376-2.421.567-3.615q1.039-6.491,2.081-12.982c.293-1.83.594-3.659.869-5.491.059-.4.191-.545.621-.543,3.479.019,6.958,0,10.436.015a6.769,6.769,0,0,1,6.991,5.823,8.148,8.148,0,0,1-5.275,8.675,12.262,12.262,0,0,1-4.538.791C494.219,490.216,492.637,490.213,491.006,490.213Zm.727-4.52a49.011,49.011,0,0,0,5.115-.036,3.414,3.414,0,0,0,2.847-4.315,2.244,2.244,0,0,0-1.923-1.853c-1.656-.176-3.334-.151-5.023-.211Z" transform="translate(120.531 -111.043)" fill-rule="evenodd"/>
    <path id="Caminho_944" data-name="Caminho 944" d="M993.85,476.706l-4.336,2.582a2.045,2.045,0,0,1-.182-.236c-1.6-2.9-4.424-3.686-7.318-2.033a7.5,7.5,0,0,0-3.175,3.725,10.274,10.274,0,0,0-.736,5.671,4.783,4.783,0,0,0,7.816,3.288,22.494,22.494,0,0,0,2.179-2.064l3.69,2.621a12.04,12.04,0,0,1-15.547,3.292c-2.479-1.386-3.63-3.774-4.019-6.524-.735-5.185,1.7-11.319,7.21-13.92a12.47,12.47,0,0,1,10.447-.392A7.523,7.523,0,0,1,993.85,476.706Z" transform="translate(-310.903 -108.253)" fill-rule="evenodd"/>
    <path id="Caminho_945" data-name="Caminho 945" d="M661.419,493.088h9.449a4.56,4.56,0,0,1-.169.425c-.656,1.225-1.3,2.454-1.987,3.664a.789.789,0,0,1-.556.365c-4.308.021-8.617.016-12.925.014a2.538,2.538,0,0,1-.329-.049c.237-1.509.467-2.991.7-4.471q1.03-6.431,2.064-12.862c.25-1.563.5-3.125.738-4.69.063-.423.2-.614.688-.6,1.545.037,3.091.012,4.637.014.171,0,.341.017.6.031Z" transform="translate(-30.504 -111.017)" fill-rule="evenodd"/>
  </g>
</svg>
