<svg xmlns="http://www.w3.org/2000/svg" xmlns:xlink="http://www.w3.org/1999/xlink" width="138.541" height="32" viewBox="0 0 138.541 32">
  <defs>
    <clipPath id="clip-path">
      <path id="Caminho_814" data-name="Caminho 814" d="M254.85-75.771h.526c.472.02,1.318.02,1.318,1.191a3.607,3.607,0,0,1-.753,2.2,2,2,0,0,1-1.469.452h-.525Zm4.817,8.688c0-.287.019-.575.019-.862a2.912,2.912,0,0,0-1.054-2.65,2.014,2.014,0,0,0-.922-.37,4.542,4.542,0,0,0,2-.637,4.356,4.356,0,0,0,1.937-3.615,2.563,2.563,0,0,0-1.506-2.548,6.086,6.086,0,0,0-2.539-.411h-6.943l-3.444,14.5h4.78l1.392-5.9h.284a1.006,1.006,0,0,1,1.052.6,1.521,1.521,0,0,1,.132.719c0,.555-.037,1.048-.075,1.478l-.076.925c-.055.616-.094,1.089-.094,1.191a1.156,1.156,0,0,0,.338.987h4.911c-.188-.226-.319-.391-.319-1.213a4.664,4.664,0,0,1,.038-.7l.094-1.5Z" transform="translate(-247.21 78.175)" fill="none" clip-rule="evenodd"/>
    </clipPath>
    <clipPath id="clip-path-2">
      <path id="Caminho_816" data-name="Caminho 816" d="M301.678-72.033c-.189.8-.377,1.581-.6,2.362-.564,2.054-1.091,2.855-2.145,2.855a1.307,1.307,0,0,1-1.3-1.479,32.6,32.6,0,0,1,1.279-6.225c.227-.739.678-2.28,1.995-2.28a1.3,1.3,0,0,1,1.072.494,1.749,1.749,0,0,1,.227.986c0,.205-.019.411-.038.637C302.055-73.78,301.866-72.918,301.678-72.033Zm4.723,1.047a16.423,16.423,0,0,0,.471-3.308,4.724,4.724,0,0,0-1.6-3.8,7.277,7.277,0,0,0-4.591-1.335,7.258,7.258,0,0,0-4.195,1.151c-1.957,1.376-2.541,3.718-2.935,5.361a15.46,15.46,0,0,0-.583,3.76,4.382,4.382,0,0,0,1.75,3.78,5.54,5.54,0,0,0,1.617.8,10.058,10.058,0,0,0,2.841.389,10.645,10.645,0,0,0,1.619-.123,5.654,5.654,0,0,0,4.665-3.512,14.829,14.829,0,0,0,.941-3.163Z" transform="translate(-292.968 79.43)" fill="none" clip-rule="evenodd"/>
    </clipPath>
    <clipPath id="clip-path-3">
      <path id="Caminho_818" data-name="Caminho 818" d="M343.386-75.751h.509c.922.021,1.806.041,1.806,1.6a9.672,9.672,0,0,1-.15,1.479c-.113.7-.264,1.418-.414,2.116-.189.8-.79,3.493-2.07,4.191a3.449,3.449,0,0,1-1.543.287h-.433Zm-.639,12.08a10.6,10.6,0,0,0,1.806-.1c2.9-.452,3.932-2.465,4.61-4.293a19.1,19.1,0,0,0,1.128-5.773c0-1.4-.263-3.019-1.919-3.841a8.352,8.352,0,0,0-3.386-.493H339.1l-3.424,14.5Z" transform="translate(-335.673 78.175)" fill="none" clip-rule="evenodd"/>
    </clipPath>
    <clipPath id="clip-path-4">
      <path id="Caminho_820" data-name="Caminho 820" d="M384.19-70.554l1.486-3.41c.226-.513.282-.7.451-1.109-.038.555-.057.616-.076,1.109l-.206,3.41Zm6.434-7.621h-7.168l-6.923,14.5h4.645l1.751-4.006h2.746l-.227,4.006h4.8l.377-14.5Z" transform="translate(-376.533 78.175)" fill="none" clip-rule="evenodd"/>
    </clipPath>
    <clipPath id="clip-path-5">
      <path id="Caminho_822" data-name="Caminho 822" d="M429.725-70.062c.978.391,1.336.534,1.618.863a1.354,1.354,0,0,1,.338.883,1.6,1.6,0,0,1-1.656,1.6,1.492,1.492,0,0,1-1.354-.761,1.969,1.969,0,0,1-.151-.821c0-.206.019-.411.019-.6h-4.479a4.21,4.21,0,0,0-.074.864c0,3.04,2.352,3.841,5.606,3.841a7.31,7.31,0,0,0,5.212-1.726,5.221,5.221,0,0,0,1.674-3.821,3.771,3.771,0,0,0-2.653-3.76l-1.335-.534c-1.129-.431-1.355-.534-1.637-.822a1.13,1.13,0,0,1-.376-.821,1.3,1.3,0,0,1,1.487-1.253,1.2,1.2,0,0,1,1.316,1.274,2.579,2.579,0,0,1-.037.493h4.12a5.413,5.413,0,0,0,.113-.986c0-2.527-2.238-3.287-5.418-3.287a7.58,7.58,0,0,0-4.178,1.068,4.979,4.979,0,0,0-2.182,4.109c0,2.4,1.58,3.143,2.728,3.656l1.3.535" transform="translate(-423.987 79.43)" fill="none" clip-rule="evenodd"/>
    </clipPath>
    <clipPath id="clip-path-6">
      <path id="Caminho_824" data-name="Caminho 824" d="M23.777-37.032h.254c3.353,0,5.776.779,5.776,3.736a3.856,3.856,0,0,1-.078.84H25.117c0-.18.02-.379.02-.58a1.836,1.836,0,0,0-.156-.8,1.555,1.555,0,0,0-1.4-.739,1.891,1.891,0,0,0-.77.15l.961-2.607" transform="translate(-22.816 37.033)" fill="#e60022" clip-rule="evenodd"/>
    </clipPath>
    <clipPath id="clip-path-7">
      <path id="Caminho_826" data-name="Caminho 826" d="M90.02-70.554l1.486-3.41c.225-.513.283-.7.452-1.109-.038.555-.057.616-.075,1.109l-.207,3.41Zm6.434-7.621H89.285l-6.923,14.5h4.647l1.75-4.006h2.746l-.225,4.006h4.8l.376-14.5Z" transform="translate(-82.362 78.175)" fill="#e60022" clip-rule="evenodd"/>
    </clipPath>
    <clipPath id="clip-path-8">
      <path id="Caminho_828" data-name="Caminho 828" d="M28.192-99.681l-2.138,8.957a10.113,10.113,0,0,1-1.561,3.985c-1.562,1.91-4.309,1.91-5.155,1.91a7.675,7.675,0,0,1-3.932-.8,3.267,3.267,0,0,1-1.656-3.1,11.216,11.216,0,0,1,.357-2.383l2.044-8.566-5.379,0a10.684,10.684,0,0,1,1.02.473,4.577,4.577,0,0,1,.683.468,4.727,4.727,0,0,1,1.6,3.8,16.442,16.442,0,0,1-.471,3.308,14.823,14.823,0,0,1-.94,3.163A5.656,5.656,0,0,1,8-84.953a10.622,10.622,0,0,1-1.617.123,10.06,10.06,0,0,1-2.841-.389,5.545,5.545,0,0,1-1.618-.8A4.385,4.385,0,0,1,.171-89.8a15.455,15.455,0,0,1,.583-3.76c.4-1.643.978-3.985,2.935-5.361.2-.144.411-.313.755-.55.42-.307,13.319-9.241,13.319-9.241h27.13L31.355-99.681Zm-7.168,0L18.98-91.135a10.849,10.849,0,0,0-.376,2.157c0,1.171.865,1.212.959,1.212a1.057,1.057,0,0,0,.752-.35c.395-.39.508-.882.941-2.856l2.081-8.71ZM8.882-92.675c.188-.884.377-1.746.489-2.65.018-.227.037-.432.037-.637a1.754,1.754,0,0,0-.226-.986,1.3,1.3,0,0,0-1.072-.494c-1.317,0-1.769,1.541-1.994,2.28a32.621,32.621,0,0,0-1.279,6.225,1.306,1.306,0,0,0,1.3,1.479c1.054,0,1.581-.8,2.145-2.855.226-.781.414-1.562.6-2.362Z" transform="translate(-0.171 108.712)" fill="#e60022" clip-rule="evenodd"/>
    </clipPath>
    <clipPath id="clip-path-9">
      <path id="Caminho_830" data-name="Caminho 830" d="M135.754-64.564h2.665l2.72-11.455h-2.674Zm7.444,0h2.944a1.157,1.157,0,0,1-.33-.979c0-.1.037-.575.094-1.191l.076-.925c.037-.43.076-.923.076-1.478a1.528,1.528,0,0,0-.132-.719,1.008,1.008,0,0,0-1.054-.6h-.283Zm7.856,0h4.39a5.6,5.6,0,0,1-1.66-.814,4.383,4.383,0,0,1-1.749-3.78,15.471,15.471,0,0,1,.583-3.76c.395-1.643.978-3.985,2.935-5.361a7.262,7.262,0,0,1,4.2-1.151,7.277,7.277,0,0,1,4.591,1.335,4.725,4.725,0,0,1,1.6,3.8,16.422,16.422,0,0,1-.471,3.308,14.811,14.811,0,0,1-.942,3.163A5.582,5.582,0,0,1,161-64.564h1.977l-2.29,8.494H133.464l2.291-8.486h-4.891l2.727-11.463h-3.028l.715-3.061,17.524.021a6.09,6.09,0,0,1,2.54.411,2.564,2.564,0,0,1,1.5,2.548,4.354,4.354,0,0,1-1.938,3.615,4.535,4.535,0,0,1-1.994.637,2.02,2.02,0,0,1,.922.37,2.914,2.914,0,0,1,1.053,2.65c0,.287-.018.575-.018.862l-.1,1.5a4.838,4.838,0,0,0-.037.7C150.74-64.956,150.868-64.786,151.053-64.564Zm9.691-7.469c.187-.884.376-1.746.488-2.65.019-.227.038-.432.038-.637a1.746,1.746,0,0,0-.227-.986,1.3,1.3,0,0,0-1.072-.494c-1.317,0-1.769,1.541-1.994,2.28A32.617,32.617,0,0,0,156.7-68.3a1.306,1.306,0,0,0,1.3,1.479c1.052,0,1.58-.8,2.145-2.855C160.367-70.452,160.555-71.233,160.744-72.033Zm-14.856-4.622-.9,3.841h.527a1.994,1.994,0,0,0,1.467-.452,3.609,3.609,0,0,0,.752-2.2c0-1.171-.846-1.171-1.317-1.191Z" transform="translate(-130.563 79.43)" fill="#e60022" clip-rule="evenodd"/>
    </clipPath>
  </defs>
  <g id="Quatro_Rodas" data-name="Quatro Rodas" transform="translate(-602 -360.5)">
    <g id="Grupo_1171" data-name="Grupo 1171" transform="translate(674.892 369.51)" clip-path="url(#clip-path)">
      <path id="Caminho_813" data-name="Caminho 813" d="M242.21-65.721h17.384V-83.175H242.21Z" transform="translate(-243.685 81.7)" fill="#010000"/>
    </g>
    <g id="Grupo_1172" data-name="Grupo 1172" transform="translate(688.394 369.14)" clip-path="url(#clip-path-2)">
      <path id="Caminho_815" data-name="Caminho 815" d="M287.968-66.237h16.854V-84.43H287.968Z" transform="translate(-289.443 82.955)" fill="#010000"/>
    </g>
    <g id="Grupo_1173" data-name="Grupo 1173" transform="translate(700.994 369.51)" clip-path="url(#clip-path-3)">
      <path id="Caminho_817" data-name="Caminho 817" d="M330.673-65.721h17.569V-83.175H330.673Z" transform="translate(-332.148 81.7)" fill="#010000"/>
    </g>
    <g id="Grupo_1174" data-name="Grupo 1174" transform="translate(713.051 369.51)" clip-path="url(#clip-path-4)">
      <path id="Caminho_819" data-name="Caminho 819" d="M371.533-65.721h17.042V-83.175H371.533Z" transform="translate(-373.008 81.7)" fill="#010000"/>
    </g>
    <g id="Grupo_1175" data-name="Grupo 1175" transform="translate(727.053 369.14)" clip-path="url(#clip-path-5)">
      <path id="Caminho_821" data-name="Caminho 821" d="M418.987-66.237h16.439V-84.43H418.987Z" transform="translate(-420.462 82.955)" fill="#010000"/>
    </g>
    <g id="Grupo_1176" data-name="Grupo 1176" transform="translate(608.682 381.65)" clip-path="url(#clip-path-6)">
      <path id="Caminho_823" data-name="Caminho 823" d="M17.816-34.507h9.942v-7.526H17.816Z" transform="translate(-19.291 40.558)" fill="#e60022"/>
    </g>
    <g id="Grupo_1177" data-name="Grupo 1177" transform="translate(626.251 369.51)" clip-path="url(#clip-path-7)">
      <path id="Caminho_825" data-name="Caminho 825" d="M77.362-65.721H94.4V-83.175H77.362Z" transform="translate(-78.837 81.7)" fill="#e60022"/>
    </g>
    <g id="Grupo_1178" data-name="Grupo 1178" transform="translate(602 360.5)" clip-path="url(#clip-path-8)">
      <path id="Caminho_827" data-name="Caminho 827" d="M-4.829-86.879H42.844v-26.833H-4.829Z" transform="translate(3.354 112.237)" fill="#e60022"/>
    </g>
    <g id="Grupo_1179" data-name="Grupo 1179" transform="translate(640.474 369.14)" clip-path="url(#clip-path-9)">
      <path id="Caminho_829" data-name="Caminho 829" d="M125.563-58.119h38.325V-84.43H125.563Z" transform="translate(-127.038 82.955)" fill="#e60022"/>
    </g>
  </g>
</svg>
