<svg xmlns="http://www.w3.org/2000/svg" width="145.893" height="24" viewBox="0 0 145.893 24">
  <g id="elastica" transform="translate(-59.384 -238.349)">
    <path id="Caminho_9048" data-name="Caminho 9048" d="M355.187,292.147c-4.867,0-8.707-2.26-9.556-5.622l3.177-.8c.4,1.564,2.713,3.147,6.379,3.147,2.712,0,4.145-.836,4.27-1.176a.878.878,0,0,0-.466-.8,6.053,6.053,0,0,0-2.721-.787l-3.5-.348a15.582,15.582,0,0,1-4.592-.965,3.806,3.806,0,0,1-2.458-3.649v-.017c.028-2.616,2.166-5.411,8.082-5.411a12.014,12.014,0,0,1,5.236,1.172,7.627,7.627,0,0,1,3.579,3.282l-2.924,1.481c-.767-1.515-3.3-2.658-5.891-2.658a8.229,8.229,0,0,0-3.811.747,1.554,1.554,0,0,0-.994,1.414c0,.259.007.417.523.649a13.978,13.978,0,0,0,3.6.7l3.517.349a9.165,9.165,0,0,1,4.227,1.349,4.121,4.121,0,0,1,1.88,3.5c0,2.659-3.034,4.446-7.547,4.446" transform="translate(-228.646 -29.848)" fill="#432d89"/>
    <path id="Caminho_9049" data-name="Caminho 9049" d="M564.616,292.148a11.872,11.872,0,0,1-8.438-3.067,7.127,7.127,0,0,1-2.147-5.154,7.489,7.489,0,0,1,3.046-6.04,11.638,11.638,0,0,1,7.154-2.171,12.263,12.263,0,0,1,5.616,1.269,7.521,7.521,0,0,1,3.6,3.706l-3.022,1.269c-.744-1.774-3.233-2.966-6.192-2.966a8.54,8.54,0,0,0-5.163,1.5,4.227,4.227,0,0,0-1.761,3.443v.012a3.869,3.869,0,0,0,1.2,2.828,8.626,8.626,0,0,0,6.112,2.1c3.721,0,7.046-1.77,7.906-4.209l3.09,1.089c-1.327,3.766-5.849,6.4-11,6.4" transform="translate(-395.11 -29.848)" fill="#432d89"/>
    <rect id="Retângulo_1732" data-name="Retângulo 1732" width="3.277" height="20.923" transform="translate(86.843 241.427)" fill="#432d89"/>
    <path id="Caminho_9050" data-name="Caminho 9050" d="M236.588,316.643c-6.308,0-7.5-2.811-7.725-4.02-.389-2.125,1.1-4.27,3.615-5.218,3.156-1.188,8.374-1.52,11.642-.019a5.512,5.512,0,0,1,3.032,3.06c.507,1.39,1.113,2.267,1.707,2.468a2.668,2.668,0,0,0,1.954-.575l1.764,2.761a5.46,5.46,0,0,1-4.769.917c-1.623-.549-2.845-2.005-3.735-4.45a2.324,2.324,0,0,0-1.321-1.2c-2.38-1.094-6.637-.827-9.12.107-1.1.415-1.615,1.187-1.547,1.561.095.517,1.4,1.333,4.5,1.333h.031l.006,3.277h-.037Z" transform="translate(-135.326 -54.343)" fill="#432d89"/>
    <path id="Caminho_9051" data-name="Caminho 9051" d="M238.729,292.148l-.006-3.277c2.851,0,4.951-.694,6.239-2.049a5.058,5.058,0,0,0,1.361-3.641c-.1-2.049-.587-4.231-5.158-4.186-4.922.048-7.142,2.673-7.163,2.7l-2.566-2.037c.126-.158,3.15-3.874,9.7-3.938,3.1-.033,5.39.81,6.818,2.5a7.746,7.746,0,0,1,1.646,4.808,8.37,8.37,0,0,1-2.259,6.058c-1.93,2.029-4.826,3.061-8.608,3.068" transform="translate(-137.43 -29.848)" fill="#432d89"/>
    <path id="Caminho_9052" data-name="Caminho 9052" d="M674.031,316.643c-6.308,0-7.5-2.811-7.725-4.02-.388-2.125,1.1-4.27,3.615-5.218,3.156-1.188,8.374-1.52,11.642-.019a5.512,5.512,0,0,1,3.032,3.06c.507,1.39,1.113,2.267,1.707,2.468a2.668,2.668,0,0,0,1.954-.575l1.764,2.761a5.459,5.459,0,0,1-4.768.917c-1.623-.549-2.845-2.005-3.736-4.45a2.323,2.323,0,0,0-1.321-1.2c-2.38-1.094-6.637-.827-9.12.107-1.1.415-1.615,1.187-1.547,1.561.095.517,1.4,1.333,4.5,1.333h.031l.006,3.277h-.037Z" transform="translate(-484.743 -54.343)" fill="#432d89"/>
    <path id="Caminho_9053" data-name="Caminho 9053" d="M676.172,292.148l-.006-3.277c2.852,0,4.951-.694,6.24-2.049a5.059,5.059,0,0,0,1.36-3.641c-.1-2.049-.586-4.231-5.158-4.186-4.922.048-7.142,2.673-7.163,2.7l-2.566-2.037c.125-.158,3.15-3.874,9.7-3.938,3.1-.033,5.39.81,6.818,2.5a7.751,7.751,0,0,1,1.646,4.808,8.369,8.369,0,0,1-2.26,6.058c-1.93,2.029-4.826,3.061-8.608,3.068" transform="translate(-486.848 -29.848)" fill="#432d89"/>
    <rect id="Retângulo_1733" data-name="Retângulo 1733" width="3.277" height="6.533" transform="translate(107.57 238.349) rotate(56.184)" fill="#432d89"/>
    <path id="Caminho_9054" data-name="Caminho 9054" d="M463.893,274.993a4.95,4.95,0,0,1-5.3-5.417V254.24h3.277V269.6a2.381,2.381,0,0,0,.471,1.642,2.247,2.247,0,0,0,1.554.471,2.892,2.892,0,0,0,2.77-1.934l3.122,1a6.2,6.2,0,0,1-5.892,4.216" transform="translate(-318.875 -12.693)" fill="#432d89"/>
    <rect id="Retângulo_1734" data-name="Retângulo 1734" width="15.427" height="3.277" transform="translate(134.885 246.015)" fill="#432d89"/>
    <rect id="Retângulo_1735" data-name="Retângulo 1735" width="3.277" height="16.479" transform="translate(153.946 245.871)" fill="#432d89"/>
    <path id="Caminho_9055" data-name="Caminho 9055" d="M529.7,248.366a1.952,1.952,0,1,1,1.952-1.952,1.954,1.954,0,0,1-1.952,1.952" transform="translate(-374.119 -4.883)" fill="#00a99d"/>
    <path id="Caminho_9056" data-name="Caminho 9056" d="M527.92,243.13a1.5,1.5,0,1,1-1.5,1.5,1.5,1.5,0,0,1,1.5-1.5m0-.9a2.4,2.4,0,1,0,2.4,2.4,2.4,2.4,0,0,0-2.4-2.4" transform="translate(-372.336 -3.101)" fill="#432d89"/>
    <path id="Caminho_9057" data-name="Caminho 9057" d="M90.549,326.474c-5.909,0-10.37-3.081-10.85-7.492l3.248-.353c.293,2.7,3.419,4.578,7.6,4.578,3.482,0,6.532-1.3,7.635-2.516l2.424,2.191c-1.942,2.148-5.985,3.592-10.059,3.592" transform="translate(-16.227 -64.125)" fill="#432d89"/>
    <path id="Caminho_9058" data-name="Caminho 9058" d="M83.325,286.369H59.384V283.1H63.5c.573-4.186,4.642-7.126,10.1-7.126a11.352,11.352,0,0,1,6.994,2.189,7.468,7.468,0,0,1,2.978,5.965,6.161,6.161,0,0,1-.04.837Zm-16.5-3.267H80.174a4.386,4.386,0,0,0-1.6-2.364,8.1,8.1,0,0,0-4.98-1.495,8.488,8.488,0,0,0-5.144,1.5,4.368,4.368,0,0,0-1.627,2.354" transform="translate(0 -30.055)" fill="#432d89"/>
  </g>
</svg>
