<svg xmlns="http://www.w3.org/2000/svg" xmlns:xlink="http://www.w3.org/1999/xlink" width="168" height="31.333" viewBox="0 0 168 31.333">
  <defs>
    <clipPath id="clip-path">
      <path id="Caminho_15" data-name="Caminho 15" d="M134.566-73.62c.323,4.334,3.161,7.237,6.608,7.237,3.3,0,5.746-3.23,5.746-6.337,0-3.6-3.053-4.988-6.824-6.623-2.37-1.022-6.86-2.658-6.86-8.136,0-5.929,4.13-8.136,8.548-8.136A8.628,8.628,0,0,1,144.8-95a6.638,6.638,0,0,0,2.011.654c.5,0,.826-.777.862-1.268h1.042v7.523h-1.257v-.163c0-.287-.574-6.174-5.71-6.174a5.572,5.572,0,0,0-5.567,5.479c0,3.925,3.412,5.029,6.86,6.46,3.017,1.268,6.824,3.639,6.824,8.5,0,6.419-4.2,8.79-8.727,8.79a13.043,13.043,0,0,1-3.591-.572,17.027,17.027,0,0,0-2.012-.573,1.1,1.1,0,0,0-.97,1.144h-1.257V-73.62h1.257" transform="translate(-133.237 95.617)" clip-rule="evenodd"/>
    </clipPath>
    <clipPath id="clip-path-2">
      <path id="Caminho_25" data-name="Caminho 25" d="M186.087-72.254h107.82V-48.9H186.087Z" transform="translate(-186.087 72.254)" clip-rule="evenodd"/>
    </clipPath>
    <clipPath id="clip-path-3">
      <rect id="Ret창ngulo_2" data-name="Ret창ngulo 2" width="108.05" height="23.616"/>
    </clipPath>
    <clipPath id="clip-path-4">
      <path id="Caminho_18" data-name="Caminho 18" d="M192.972-50.479a3.555,3.555,0,0,0,3.605-3.815v-3.878c-4.11,0-6.994.9-6.994,4.56,0,1.83,1.19,3.133,3.389,3.133Zm-4.758-18.3a3.356,3.356,0,0,1,1.01-2.388,3.662,3.662,0,0,1,2.668-1.055,8.248,8.248,0,0,1,2.956.62,8.316,8.316,0,0,0,2.7.713,1.564,1.564,0,0,0,1.586-1.365H200.4a3.592,3.592,0,0,1-3.677,3.474,7.723,7.723,0,0,1-2.956-.744A7.256,7.256,0,0,0,191.1-70.3a1.589,1.589,0,0,0-1.622,1.519Zm15,16.5c0,1.675-1.37,2.885-3.316,2.885-1.55,0-2.992-.589-3.173-2.047h-.072A5.5,5.5,0,0,1,192-49.393c-3.209,0-5.912-1.272-5.912-4.125,0-4.777,5.552-5.553,10.491-5.553v-2.946a2.788,2.788,0,0,0-2.848-2.823c-1.226,0-2.6.155-2.884,1.334a1.885,1.885,0,0,1,.613,1.333,1.781,1.781,0,0,1-1.91,1.52,1.981,1.981,0,0,1-2.127-2.047c0-2.357,3.894-3.039,6.273-3.039,3.641,0,5.84,1.365,5.84,3.97v8.965c0,.869.037,2.14,1.118,2.14,1.045,0,1.514-.993,1.514-2.14v-1.148h1.045v1.675Z" transform="translate(-186.087 72.254)" clip-rule="evenodd"/>
    </clipPath>
    <clipPath id="clip-path-5">
      <path id="Caminho_17" data-name="Caminho 17" d="M186-49.384H294.051V-73H186Z" transform="translate(-186 73)"/>
    </clipPath>
    <clipPath id="clip-path-6">
      <path id="Caminho_21" data-name="Caminho 21" d="M252.2-42.917c0-2.861-.036-7.388-4.531-7.388s-4.531,4.527-4.531,7.388c0,2.83.037,7.357,4.531,7.357s4.531-4.527,4.531-7.357m-12.578,0c0-4.307,2.791-8.3,8.047-8.3s8.047,3.993,8.047,8.3c0,4.276-2.792,8.269-8.047,8.269s-8.047-3.993-8.047-8.269" transform="translate(-239.623 51.217)" clip-rule="evenodd"/>
    </clipPath>
    <clipPath id="clip-path-8">
      <path id="Caminho_24" data-name="Caminho 24" d="M482.2-42.917c0-2.861-.036-7.388-4.531-7.388s-4.532,4.527-4.532,7.388c0,2.83.037,7.357,4.532,7.357s4.531-4.527,4.531-7.357m-12.578,0c0-4.307,2.791-8.3,8.047-8.3s8.047,3.993,8.047,8.3c0,4.276-2.792,8.269-8.047,8.269s-8.047-3.993-8.047-8.269" transform="translate(-469.623 51.217)" clip-rule="evenodd"/>
    </clipPath>
    <clipPath id="clip-path-10">
      <path id="Caminho_27" data-name="Caminho 27" d="M298.358-80.6h2.5c3.655,0,5.933-2.908,5.933-6.67,0-5.174-2.026-7.141-5.97-7.141h-2.46Zm-6.3,14.153h1.085c1.918,0,1.918-1.111,1.918-3.078V-91.081c0-2.052,0-3.335-1.882-3.335h-1.122v-1.24h8.069c5.138,0,10.493,1.069,10.493,8.381,0,5.986-5.138,7.91-9.95,7.91h-2.316v10.091c0,2.052.362,2.822,2.207,2.822h.832v1.24h-9.335v-1.24Z" transform="translate(-292.062 95.656)" clip-rule="evenodd"/>
    </clipPath>
    <clipPath id="clip-path-11">
      <path id="Caminho_40" data-name="Caminho 40" d="M.06-96.916H152.788v31.333H.06Z" transform="translate(-0.06 96.916)" fill="#fff" clip-rule="evenodd"/>
    </clipPath>
    <clipPath id="clip-path-12">
      <rect id="Ret창ngulo_3" data-name="Ret창ngulo 3" width="153.018" height="31.38" fill="#fff"/>
    </clipPath>
    <clipPath id="clip-path-13">
      <path id="Caminho_30" data-name="Caminho 30" d="M339.314-36.944a3.569,3.569,0,0,0,3.622-3.829v-3.891c-4.13,0-7.028.9-7.028,4.576,0,1.837,1.2,3.144,3.406,3.144M349.6-38.75c0,1.681-1.377,2.9-3.333,2.9-1.558,0-3.007-.591-3.188-2.055h-.073a5.531,5.531,0,0,1-4.673,2.055c-3.225,0-5.942-1.276-5.942-4.14,0-4.794,5.579-5.572,10.542-5.572v-2.957a2.8,2.8,0,0,0-2.862-2.833c-1.232,0-2.609.156-2.9,1.339a1.892,1.892,0,0,1,.616,1.339,1.79,1.79,0,0,1-1.92,1.525,1.99,1.99,0,0,1-2.137-2.055c0-2.366,3.913-3.051,6.3-3.051,3.659,0,5.87,1.37,5.87,3.985v9c0,.872.036,2.148,1.122,2.148,1.051,0,1.522-1,1.522-2.148V-40.43H349.6v1.681" transform="translate(-332.394 52.26)" clip-rule="evenodd"/>
    </clipPath>
    <clipPath id="clip-path-14">
      <path id="Caminho_29" data-name="Caminho 29" d="M0-65.62H153.018V-97H0Z" transform="translate(0 97)"/>
    </clipPath>
    <clipPath id="clip-path-15">
      <path id="Caminho_33" data-name="Caminho 33" d="M385.109-38.59c0,1.882,1.184,3.271,3.731,3.271,2.618,0,4.555-2.5,4.555-5.092v-6.327c0-1.729-.287-2.191-2.223-2.191h-.717v-.9h.466a55.777,55.777,0,0,0,5.667-.494,37.456,37.456,0,0,0-.251,3.858v9.075c0,1.759.43,1.944,2.08,1.944h.825v.9H393.61v-2.346h-.072c-.861,1.636-3.156,2.839-5.811,2.839-3.335,0-5.559-1.018-5.559-4.66v-8.025c0-1.729-.287-2.191-2.223-2.191h-.682v-.9h.431a55.783,55.783,0,0,0,5.667-.494,37.563,37.563,0,0,0-.251,3.858v7.871" transform="translate(-379.263 50.319)" clip-rule="evenodd"/>
    </clipPath>
    <clipPath id="clip-path-17">
      <path id="Caminho_36" data-name="Caminho 36" d="M450.649-52.954c0,2.408.326,2.408,1.7,2.408h1.267v.9h-8.87v-.9h1.231c1.376,0,1.7,0,1.7-2.408V-69.319c0-1.606-.036-2.439-1.882-2.439h-1.05v-.9h5.9v19.7" transform="translate(-444.748 72.653)" clip-rule="evenodd"/>
    </clipPath>
    <clipPath id="clip-path-19">
      <path id="Caminho_39" data-name="Caminho 39" d="M32.437-86.3c-.824.366-.686,1.532.115,2.1a3.936,3.936,0,0,0,2.7.274,2.851,2.851,0,0,0,2.585-3.065v-.183c-1.418.618-4.506.458-5.4.87Zm-.618-7a12.007,12.007,0,0,1,5.742-.275,3.545,3.545,0,0,1,2.905,3.111v7.686a4.423,4.423,0,0,0,.069.778H37.812v-.641a7.054,7.054,0,0,1-5.6.938,3.808,3.808,0,0,1-3.088-4.964,3.384,3.384,0,0,1,3.271-2.081l3.546-.183c1.9-.092,1.853-.983,1.875-1.1a1.434,1.434,0,0,0-.411-.983c-.984-1.029-4.987-1.144-4.667,1.418H29.554A3.7,3.7,0,0,1,31.819-93.3Zm-6.2-.938h2.653v-2.676H25.62Zm.16,16.2c.595-.16,2.493-.984,2.493-3.889V-92.707l.023-.87H25.574l.023.892V-81.91c0,1.555-1.121,1.624-2.31,1.418v2.585l.069.046a8.812,8.812,0,0,0,2.425-.183ZM15.6-89h6.222c-.411-3.18-5.833-3.34-6.222,0Zm9.31,1.99H15.464a3.282,3.282,0,0,0,3.225,3.226,3.583,3.583,0,0,0,3.133-2.31H24.75a6.271,6.271,0,0,1-6.816,4.483,6.169,6.169,0,0,1-4.644-2.951,6.111,6.111,0,0,1,.183-6.5,6.271,6.271,0,0,1,11.437,4.049ZM5.49-83.031C4.095-85.707.526-92.592.526-92.592S.32-93.027,0-93.576H3.225L6.748-86.05c.114.229.16.343.16.343a2.614,2.614,0,0,1,.16.48,3.964,3.964,0,0,1,.137-.48l.137-.343c-.115.274,3.522-7.5,3.522-7.526h3.248a6.126,6.126,0,0,0-.434.709s-3.66,7.16-5.033,9.836c-.091.16-.206.366-.274.5A4.709,4.709,0,0,0,8.144-82H5.97a3.309,3.309,0,0,0-.229-.526l-.252-.5Z" transform="translate(0 96.916)" fill="#e23e4f" clip-rule="evenodd"/>
    </clipPath>
    <clipPath id="clip-path-20">
      <path id="Caminho_38" data-name="Caminho 38" d="M0-65.62H153.018V-97H0Z" transform="translate(0 97)" fill="#e23e4f"/>
    </clipPath>
  </defs>
  <g id="Veja_SP" data-name="Veja SP" transform="translate(-360 -581.5)">
    <g id="Grupo_10" data-name="Grupo 10" transform="translate(403.083 581.92)" clip-path="url(#clip-path)">
      <path id="Caminho_14" data-name="Caminho 14" d="M128.237-66.963H148.1v-33.654H128.237Z" transform="translate(-129.855 98.999)"/>
    </g>
    <g id="Grupo_18" data-name="Grupo 18" transform="translate(420.18 589.478)" clip-path="url(#clip-path-2)">
      <g id="Grupo_17" data-name="Grupo 17" transform="translate(-0.028 -0.241)" clip-path="url(#clip-path-3)">
        <g id="Grupo_12" data-name="Grupo 12" transform="translate(0.028 0.241)" clip-path="url(#clip-path-4)">
          <g id="Grupo_11" data-name="Grupo 11" transform="translate(-0.028 -0.241)" clip-path="url(#clip-path-5)">
            <path id="Caminho_16" data-name="Caminho 16" d="M181.087-51.158h20.358v-26.1H181.087Z" transform="translate(-182.676 75.878)"/>
          </g>
        </g>
        <g id="Grupo_14" data-name="Grupo 14" transform="translate(17.347 7.047)" clip-path="url(#clip-path-6)">
          <g id="Grupo_13" data-name="Grupo 13" transform="translate(-17.347 -7.047)" clip-path="url(#clip-path-5)">
            <path id="Caminho_19" data-name="Caminho 19" d="M234.623-36.413h19.329v-19.8H234.623Z" transform="translate(-218.893 61.646)"/>
          </g>
        </g>
        <g id="Grupo_16" data-name="Grupo 16" transform="translate(91.753 7.047)" clip-path="url(#clip-path-8)">
          <g id="Grupo_15" data-name="Grupo 15" transform="translate(-91.753 -7.047)" clip-path="url(#clip-path-5)">
            <path id="Caminho_22" data-name="Caminho 22" d="M464.623-36.413h19.329v-19.8H464.623Z" transform="translate(-374.487 61.646)"/>
          </g>
        </g>
      </g>
    </g>
    <g id="Grupo_19" data-name="Grupo 19" transform="translate(454.464 581.908)" clip-path="url(#clip-path-10)">
      <path id="Caminho_26" data-name="Caminho 26" d="M287.062-66.977h21.8v-33.679h-21.8Z" transform="translate(-288.68 99.038)"/>
    </g>
    <g id="Grupo_29" data-name="Grupo 29" transform="translate(360 581.5)" clip-path="url(#clip-path-11)">
      <g id="Grupo_28" data-name="Grupo 28" transform="translate(-0.019 -0.027)" clip-path="url(#clip-path-12)">
        <g id="Grupo_21" data-name="Grupo 21" transform="translate(107.531 14.474)" clip-path="url(#clip-path-13)">
          <g id="Grupo_20" data-name="Grupo 20" transform="translate(-107.531 -14.474)" clip-path="url(#clip-path-14)">
            <path id="Caminho_28" data-name="Caminho 28" d="M327.394-37.62h20.444V-57.26H327.394Z" transform="translate(-221.481 70.116)"/>
          </g>
        </g>
        <g id="Grupo_23" data-name="Grupo 23" transform="translate(122.693 15.102)" clip-path="url(#clip-path-15)">
          <g id="Grupo_22" data-name="Grupo 22" transform="translate(-122.693 -15.102)" clip-path="url(#clip-path-14)">
            <path id="Caminho_31" data-name="Caminho 31" d="M374.263-35.818h23.213v-19.5H374.263Z" transform="translate(-253.187 68.803)"/>
          </g>
        </g>
        <g id="Grupo_25" data-name="Grupo 25" transform="translate(143.878 7.876)" clip-path="url(#clip-path-17)">
          <g id="Grupo_24" data-name="Grupo 24" transform="translate(-143.878 -7.876)" clip-path="url(#clip-path-14)">
            <path id="Caminho_34" data-name="Caminho 34" d="M439.748-51.416h12.1V-77.653h-12.1Z" transform="translate(-297.488 83.912)"/>
          </g>
        </g>
        <g id="Grupo_27" data-name="Grupo 27" transform="translate(0 0.027)" clip-path="url(#clip-path-19)">
          <g id="Grupo_26" data-name="Grupo 26" transform="translate(0 -0.027)" clip-path="url(#clip-path-20)">
            <path id="Caminho_37" data-name="Caminho 37" d="M-5-79.61H38.769v-22.306H-5Z" transform="translate(3.382 100.326)" fill="#e23e4f"/>
          </g>
        </g>
      </g>
    </g>
  </g>
</svg>
