<svg id="Assets-01" xmlns="http://www.w3.org/2000/svg" width="161.053" height="32" viewBox="0 0 161.053 32">
  <path id="Caminho_1485" data-name="Caminho 1485" d="M364.98,6.8,360.285,0H350.9L346.2,6.8h6.26l.108-.117L355.59,3.4l3.13,3.4h6.259Z" transform="translate(-268.498)" fill="#8a7891"/>
  <path id="Caminho_1486" data-name="Caminho 1486" d="M361.915,45.048c0-6.953-5.46-12.029-13.351-12.029a13.542,13.542,0,0,0-10.01,3.962,16.226,16.226,0,0,1,2.219,8.451,16.258,16.258,0,0,1-2.165,8.362,13.512,13.512,0,0,0,9.956,3.966c6.27,0,11.176-3.284,12.8-8.787h-9a4.181,4.181,0,0,1-3.8,1.792,3.905,3.905,0,0,1-4.1-3.37H361.7a14.961,14.961,0,0,0,.214-2.346M344.543,43a4.236,4.236,0,0,1,8.121,0Z" transform="translate(-262.586 -25.76)" fill="#8a7891"/>
  <path id="Caminho_1487" data-name="Caminho 1487" d="M231.469,7.5a10.657,10.657,0,0,0-5.5,1.48V0h-9.342V8.493a14.136,14.136,0,0,1,4.863,10.877c0,.1,0,.2-.005.3,0,.012,0,.024,0,.037,0,.224-.008.447-.018.668a14.723,14.723,0,0,1-4.84,10.167v.609h7.124l.729-1.694A10.527,10.527,0,0,0,231.469,32c7.166,0,12.029-4.917,12.029-12.249S238.635,7.5,231.469,7.5m-1.748,16.614a4.181,4.181,0,0,1-4.223-4.366,4.225,4.225,0,1,1,8.446,0,4.206,4.206,0,0,1-4.223,4.366" transform="translate(-168.026)" fill="#eea64b"/>
  <path id="Caminho_1488" data-name="Caminho 1488" d="M145.29,45.048c0-6.953-5.46-12.029-13.351-12.029a13.541,13.541,0,0,0-10.01,3.962,16.225,16.225,0,0,1,2.219,8.451,16.259,16.259,0,0,1-2.164,8.362,13.512,13.512,0,0,0,9.956,3.966c6.27,0,11.176-3.284,12.8-8.787h-9a4.182,4.182,0,0,1-3.8,1.792,3.906,3.906,0,0,1-4.1-3.37h17.238a14.993,14.993,0,0,0,.213-2.346M127.918,43a4.236,4.236,0,0,1,8.121,0Z" transform="translate(-94.569 -25.76)" fill="#87bab2"/>
  <path id="Caminho_1489" data-name="Caminho 1489" d="M13.1,24.116a4.181,4.181,0,0,1-4.223-4.366,4.225,4.225,0,1,1,8.446,0A4.206,4.206,0,0,1,13.1,24.116M14.844,7.5a10.657,10.657,0,0,0-5.5,1.48V0H0V31.152H7.124l.729-1.694A10.528,10.528,0,0,0,14.844,32c7.166,0,12.029-4.917,12.029-12.249S22.011,7.5,14.844,7.5" fill="#e87572"/>
  <path id="Caminho_1490" data-name="Caminho 1490" d="M702.154,94.117a3.737,3.737,0,0,0-3.478,2.039l-.162-2h-.687v10.153h.921V98.654c0-2.159,1.3-3.66,3.336-3.66" transform="translate(-541.101 -73.045)" fill="#808285"/>
  <path id="Caminho_1491" data-name="Caminho 1491" d="M649.249,81.753a5.091,5.091,0,0,0-4.335,2.275V78.36h-.921V92.111h.738l.14-2.138a5.244,5.244,0,1,0,4.377-8.221m-.061,9.669a4.387,4.387,0,0,1,0-8.773,4.387,4.387,0,0,1,0,8.773" transform="translate(-499.437 -60.85)" fill="#808285"/>
  <rect id="Ret창ngulo_1300" data-name="Ret창ngulo 1300" width="1.208" height="1.439" transform="translate(141.256 29.822)" fill="#808285"/>
  <path id="Caminho_1492" data-name="Caminho 1492" d="M567.55,93.367a3.861,3.861,0,0,0-3.6,2.34,3.246,3.246,0,0,0-3.195-2.34,3.868,3.868,0,0,0-3.451,2l-.158-1.8h-.7v10.153h.921V97.889c.01-2.149,1.355-3.67,3.2-3.67,1.672,0,2.713,1.275,2.713,3.324v6.182h.9V97.889c.01-2.149,1.355-3.67,3.2-3.67,1.653,0,2.7,1.3,2.7,3.324l.01,6.182h.912V97.291c0-2.327-1.379-3.924-3.46-3.924" transform="translate(-431.683 -72.465)" fill="#808285"/>
  <path id="Caminho_1493" data-name="Caminho 1493" d="M507.156,93.367a5.282,5.282,0,1,0,5.315,5.282,5.161,5.161,0,0,0-5.315-5.282m0,9.669a4.387,4.387,0,1,1,4.376-4.387,4.265,4.265,0,0,1-4.376,4.387" transform="translate(-389.162 -72.465)" fill="#808285"/>
  <path id="Caminho_1494" data-name="Caminho 1494" d="M456.537,103.934a4.96,4.96,0,0,0,4.821-3.376h-.94a4.132,4.132,0,0,1-3.881,2.481,4.388,4.388,0,0,1,0-8.773,4.108,4.108,0,0,1,3.869,2.445h.923a4.89,4.89,0,0,0-4.792-3.34,5.282,5.282,0,0,0,0,10.564" transform="translate(-349.97 -72.467)" fill="#808285"/>
  <rect id="Ret창ngulo_1301" data-name="Ret창ngulo 1301" width="1.207" height="1.439" transform="translate(99.257 29.822)" fill="#808285"/>
</svg>
