<svg xmlns="http://www.w3.org/2000/svg" width="125.482" height="28" viewBox="0 0 125.482 28">
  <g id="Untitled-1" transform="translate(-181.542 -243.302)">
    <path id="Caminho_8820" data-name="Caminho 8820" d="M551.814,261.733v9.295h-7.756v-9.295h-5v23.045h5v-9.744h7.756v9.744h5V261.733Zm-26.931,10.1v-6.41h2.789c2.34,0,3.526.641,3.526,3.173a3.06,3.06,0,0,1-3.3,3.237Zm7.6,2.661a6.862,6.862,0,0,0,3.718-6.443c0-4.423-3.3-6.314-8.237-6.314h-8.045v23.045h4.968v-9.2H527.9l3.911,9.2h5.257Z" transform="translate(-249.79 -13.606)" fill="#2a488b"/>
    <g id="Grupo_6333" data-name="Grupo 6333" transform="translate(181.542 243.302)">
      <path id="Caminho_8821" data-name="Caminho 8821" d="M202.411,266.11l-.1.241c-.1.207-.207.413-.964,2.2-1.687,3.96-4.684,10.194-7.37,17.115l-.069.207h-2.066l-7.094-17.322c-1.068-2.617-.861-2.135-1.1-2.651-.689-.138-.275-.069-2.1-.345v-2.514H192.8v2.514c-1.859.275-1.412.241-2.411.345l.62,1.653c1.068,2.79,2.445,6.164,3.34,8.369l.034.034.172.482.1.206.069-.206c.448-1.1,2.032-5.028,3.237-8.609.207-.586.413-1.205.586-1.825l-1.171-.173-1.446-.241v-2.548h8.781v2.548c-2.032.448-1.618.379-2.307.517" transform="translate(-181.542 -257.877)" fill="#231f20"/>
      <path id="Caminho_8822" data-name="Caminho 8822" d="M275.738,276.632c-.235,2.148-.906,3.658-1.98,4.5a4.809,4.809,0,0,1-3.557.839,5.025,5.025,0,0,1-3.289-1.711c-1.745-1.98-2.517-5.37-2.114-9.329a6.055,6.055,0,0,1,2.148-4.3,4.3,4.3,0,0,1,3.222-.873,4.868,4.868,0,0,1,3.456,1.879c1.644,1.98,2.45,5.436,2.114,8.993m6.275-2.785a11.36,11.36,0,0,0-3.155-8.088,12.037,12.037,0,0,0-8.591-3.356,11.657,11.657,0,0,0-8.625,3.356,11.895,11.895,0,0,0,0,16.209,12.718,12.718,0,0,0,17.215,0,11.44,11.44,0,0,0,3.155-8.121" transform="translate(-238.321 -257.403)" fill="#231f20"/>
      <path id="Caminho_8823" data-name="Caminho 8823" d="M369.944,269.685c-.973-2.215-2.383-3.927-5.839-3.859-3.959.033-5.3,4.429-5.3,6.409,0,7.316,4.463,9.262,6.812,9.262a6.833,6.833,0,0,0,5.235-2.718l1.98,2.081-.068.067a9.9,9.9,0,0,1-8.255,4.4,11.7,11.7,0,0,1-8.255-3.255,11.4,11.4,0,0,1-3.322-8.221c0-6.712,4.866-11.443,11.846-11.443a11.588,11.588,0,0,1,8.457,3.792l.1.067Z" transform="translate(-308.063 -257.403)" fill="#231f20"/>
      <path id="Caminho_8824" data-name="Caminho 8824" d="M443,248.235l.873-1.477-5.3-3.456-5.939,3.155.906,1.51,4.664-1.779h.067Zm-1.041,7.585c-3.054,1.04-6.141,2.08-9.2,3.154a11.867,11.867,0,0,1-.033-2.886c.2-2.282,1.611-4.866,4.9-4.6,2.214.168,3.557,1.477,4.262,4.06Zm6.242,1.51v-.068c-1.208-4.866-3.691-8.926-10.067-8.96a10.5,10.5,0,0,0-7.651,2.953,12.579,12.579,0,0,0-3.456,8.96,11.069,11.069,0,0,0,11.342,11.007A10.828,10.828,0,0,0,448,266.155l.067-.1-2.316-2.349c-1.175,2.047-4.3,3.96-6.074,3.758a6.307,6.307,0,0,1-6.242-5.134c1.141-.369,14.766-4.933,14.766-5" transform="translate(-362.76 -243.302)" fill="#231f20"/>
    </g>
  </g>
</svg>
