<svg xmlns="http://www.w3.org/2000/svg" width="99.279" height="28" viewBox="0 0 99.279 28">
  <g id="Logo_VC_SA_NOVO" data-name="Logo VC SA NOVO" transform="translate(-97.109 -201.041)">
    <path id="Caminho_8820" data-name="Caminho 8820" d="M184.026,216.7l2.131-6.491,2.1,6.491Zm-7.875,9.164h4.616l1.775-5.059h7.23l1.678,5.059h4.938v-1.623l-7.682-20.65H183.8l-7.65,20.65Zm-10.869,3.182h3.712l8.747-26.377v-1.623h-3.712l-8.747,26.377Zm-10.408-2.7c5.939,0,8.811-2.927,8.811-6.9,0-3.786-3.163-5.346-6.81-6.587l-1.678-.573c-2.066-.732-3.712-1.018-3.712-2.577,0-1.3,1.194-2.068,3.26-2.068,1.9,0,3.647.922,3.647,3.086h5.035c0-5.154-3.647-7.6-8.553-7.6-5.261,0-8.456,2.7-8.456,6.841,0,4.009,3.26,5.473,6.068,6.4l1.808.6c2.808.923,4.325,1.4,4.325,2.736,0,1.273-1.065,2.132-3.292,2.132-1.872,0-4.454-.6-4.454-3.182h-5c0,5.123,4.1,7.7,9.005,7.7m-26.723,0c4.486,0,8.457-2.259,8.457-7.859v-.318h-5.035v.318c0,2.546-1.84,3.341-3.744,3.341-2.485,0-3.583-1.209-3.583-3.15v-7.891c0-1.941,1.1-3.15,3.583-3.15,1.9,0,3.744.891,3.744,3.341v.318h5.035v-.318c0-5.6-3.97-7.859-8.457-7.859-5.81,0-8.908,2.96-8.908,8.019v7.191c0,5.059,3.1,8.018,8.908,8.018m-23.36-.477h4.938l7.65-20.65v-1.622h-4.745l-5.293,15.655-5.455-15.655H97.109v1.622Z" transform="translate(0 0)"/>
  </g>
</svg>
