<svg xmlns="http://www.w3.org/2000/svg" xmlns:xlink="http://www.w3.org/1999/xlink" width="114.757" height="41.025" viewBox="0 0 114.757 41.025">
  <defs>
    <clipPath id="clip-path">
      <path id="Caminho_42" data-name="Caminho 42" d="M68.825-143.812a2.109,2.109,0,0,1-.389.277Zm41.748,3.5-.039-.02-.041-.019a8.452,8.452,0,0,0-6.064-.2l-.086.029-.124.051a11.256,11.256,0,0,0-3.146,2.031,3.644,3.644,0,0,0-.523-.853,3.681,3.681,0,0,0-2.668-1.309h-.034l-3.26,0a3.538,3.538,0,0,0-1.733.48c-.89-3.246-3.645-8.094-12.183-6.425a24.725,24.725,0,0,0-5.987,2.167l-1.223.612c-.116.06-.223.113-.335.17,0-.07.018-.131.018-.2a5.268,5.268,0,0,0-.178-1.362,5.7,5.7,0,0,0-2.827-3.475,6.189,6.189,0,0,0-7.506,1.278l.066-.054a6.031,6.031,0,0,0-1.673,4.249,7.2,7.2,0,0,0,.07.986v.01c0-.011-.053-.527-.053-.527s.08.728.08.753l.015.06a8.7,8.7,0,0,0,.462,1.542,6.171,6.171,0,0,0-.979-.133H52.429a3.679,3.679,0,0,0-2.508,1.047,7.5,7.5,0,0,0-3.54-1.174H38.189a3.747,3.747,0,0,0-3.362,2.28l-.018.043c-.019-.126-.032-.219-.038-.266-.3-2.8-2.049-3.217-3.064-3.217a3.161,3.161,0,0,0-1.422.328c.006-.1.029-.189.029-.287A4.655,4.655,0,0,0,27.523-146l0-.007-.019-.009a20.193,20.193,0,0,0-11.3-1.436,21.266,21.266,0,0,0-3.352.9A16.958,16.958,0,0,0,2.64-134.817,17.765,17.765,0,0,0,2-130.486s0,.449,0,.449a15.375,15.375,0,0,0,5.338,12.125,12.905,12.905,0,0,0,6.05,2.789l.048.01.936.155.073.009.472.056.026,0a13.229,13.229,0,0,0,2.879-.07l.082-.011.106-.02.073-.015a15.116,15.116,0,0,0,9.354-6.653c.334-.526.585-.935.784-1.269.319,1.967.726,4.483.726,4.483l.027.14a3.129,3.129,0,0,0,3.236,2.8l6.593.017a3.707,3.707,0,0,0,2.338-.718,3.888,3.888,0,0,0,1.511-2.721l.558-4.2a13.485,13.485,0,0,0,5.56-1.355l-.738,5.363a3.694,3.694,0,0,0-.031.481,3.245,3.245,0,0,0,.574,1.9,3.472,3.472,0,0,0,2.95,1.389l1.491-.006h.1a4.07,4.07,0,0,0,2.295-.739,3.932,3.932,0,0,0,1.48-2.7s.124-.932.267-2.012c.306.214.6.433.871.658l.067.055.107.078c.808.558,1.77,1.306,2.955,2.3a37.352,37.352,0,0,0,19.275,8.108,29.946,29.946,0,0,0,19.211-3.907,3.571,3.571,0,0,0,.538.278,3.623,3.623,0,0,0,2.794-.027,3.63,3.63,0,0,0,1.96-2c.022-.054.038-.11.057-.165a9.542,9.542,0,0,0,2.6-.4l.143-.042.1-.043c3-1.224,6.764-4.216,7.7-11.522l.008-.069.06-.479a21.193,21.193,0,0,0,.143-2.405c0-6.252-3.152-8.875-5.184-9.914Z" transform="translate(-2 149.392)" fill="#fff" clip-rule="evenodd"/>
    </clipPath>
    <clipPath id="clip-path-2">
      <path id="Caminho_45" data-name="Caminho 45" d="M139.145-106.8h-8.095a1.05,1.05,0,0,0-.876.622l-.349.838c-.143.343.017.622.359.622h.9a.577.577,0,0,1,.487.582l-2.252,16.36s-.24.709.833.709,1.538,0,1.538,0,.993.16,1.153-1.089c.063-.494.8-6.01.8-6.01.078-.394.318-.48.458-.495h.106c3.8-.024,8.466-.286,9.085-5.987C143.938-106.626,139.145-106.8,139.145-106.8Zm.233,6.407c-.5,4.643-3.89,4.716-5.087,4.638a.589.589,0,0,1-.39-.542l1.185-8.777a1.087,1.087,0,0,1,.865-.609c.059-.01-.015.023.043,0,1.372-.011,3.848,1.017,3.383,5.291Z" transform="translate(-129.297 106.801)" fill="#e23e4f" clip-rule="evenodd"/>
    </clipPath>
    <clipPath id="clip-path-3">
      <path id="Caminho_47" data-name="Caminho 47" d="M230.559-135.2c0,.017.008.035.01.053s0,.05.009.075l.008.008c.48,2.363,2.052,4.123,7.794,3,3.334-.652,6.015-1.9,9.393-2.562.3-.059.611-.106.922-.142,2.422-.136,5.23.449,5.4,4.266l.008.231a14.7,14.7,0,0,1-.212,2.242c.007.039-2.242,16.481-2.242,16.481s-.24.709.833.709,1.538,0,1.538,0,.993.16,1.153-1.089c.052-.406.556-4.2.735-5.541l-.012-.008s.122-.934.3-2.277c.095-.232.234-.521.626-.521h3.519a.474.474,0,0,1,.449.513v0l-1.131,8.216s-.24.709.833.709,1.538,0,1.538,0,.993.16,1.153-1.089c.053-.406.556-4.2.735-5.541l-.012-.008s.14-1.072.338-2.57c0-.006,0-.012,0-.018l.267-1.98c.392-2.959.851-6.394.968-7.137.214-1.356-.875-1.39-.875-1.39v0H261.39a1.049,1.049,0,0,0-.877.622l-.349.838c-.143.343.018.622.359.622h.9a.578.578,0,0,1,.487.582l-.785,5.7-.026.1a.783.783,0,0,1-.7.545h-3.357v0a.546.546,0,0,1-.542-.512c.2-1.484.408-3.135.575-4.506.7-3.788.006-5.347.052-5.248-1.155-4.678-4.77-5.6-9.141-4.741-4.134.809-6.044,3.142-10.312,3.977-4.233.827-6.139-.483-6.632-2.621h0a3.53,3.53,0,0,1,1-2.932,2.474,2.474,0,0,1,.941-.473l.042-.009q.126-.033.24-.052a1.765,1.765,0,0,1,1.009.081.705.705,0,0,1,.23.143l0,0c.009.007.014.015.022.022a.705.705,0,0,1,.156.257.7.7,0,0,1,.041.229.694.694,0,0,1-.414.653l-.015.012a1.817,1.817,0,0,0-.933,1.588,1.818,1.818,0,0,0,1.818,1.818,1.812,1.812,0,0,0,1.324-.574l.006,0s.02-.024.054-.068a1.815,1.815,0,0,0,.239-.361,2.814,2.814,0,0,0-1.211-4.093,3.458,3.458,0,0,0-4.082.739,3.508,3.508,0,0,0-.951,3.026h0" transform="translate(-230.522 139.352)" fill="#e23e4f" clip-rule="evenodd"/>
    </clipPath>
    <clipPath id="clip-path-4">
      <path id="Caminho_49" data-name="Caminho 49" d="M372.463-107.492a5.86,5.86,0,0,0-4.061-.085c-2.708,1.167-5.186,3.821-5.889,9.3h0c-.023.168-.048.336-.068.512-.664,5.819,1.3,8.569,3.85,9.742l0,0a5.816,5.816,0,0,0,1.792.315,6.982,6.982,0,0,0,1.851-.288v0c2.769-1.131,5.331-3.781,6.048-9.372h0c.023-.168.047-.336.067-.511C376.7-103.5,374.883-106.254,372.463-107.492ZM372.5-97.6c-.115.76-.262,1.49-.434,2.182-.838,3.511-2.348,6.01-3.732,5.984a1.173,1.173,0,0,1-.234-.009c-1.71-.259-2.511-4.33-1.79-9.094s2.691-8.415,4.4-8.156,2.511,4.331,1.79,9.093Z" transform="translate(-362.319 107.907)" fill="#e23e4f" clip-rule="evenodd"/>
    </clipPath>
    <clipPath id="clip-path-5">
      <path id="Caminho_51" data-name="Caminho 51" d="M234.123-85.691l-.022-.038a1.075,1.075,0,0,0-.173-.269,1.56,1.56,0,0,0-2.207-.138c-.077.05-.152.1-.226.158a.1.1,0,0,0,0-.011,25.507,25.507,0,0,1-6.307,3.028h0c-8.619,2.411-17.455-.064-24.235-4.033a.123.123,0,0,1,0-.012c-.313-.171-.63-.359-.942-.554a1.883,1.883,0,0,0,.082-.359c.052-.406.556-4.2.735-5.541l-.012-.008s.14-1.072.338-2.57l.264-2c.392-2.959.851-6.394.968-7.137.214-1.356-.875-1.39-.875-1.39v0h-3.211a1.05,1.05,0,0,0-.877.622l-.349.838c-.143.343.018.622.359.622h.9a.578.578,0,0,1,.487.582l-1.947,14.14c-.3-.236-.6-.473-.884-.712a45.346,45.346,0,0,0-5.3-4.041c2.757-.427,5.231-1.734,5.67-5.777.648-5.971-4.145-6.147-4.145-6.147H184.13a1.05,1.05,0,0,0-.876.622l-.349.838c-.143.343.018.622.359.622h.9a.577.577,0,0,1,.487.582L182.4-87.407s-.24.71.833.71,1.538-.005,1.538-.005.993.16,1.153-1.089c.057-.446.662-5,.778-5.866l.168.008a19.544,19.544,0,0,1,4.58,2.772c.835.576,1.848,1.358,3.139,2.438,8.785,7.351,25.369,11.546,37,2.857a.8.8,0,0,1,.139-.082.4.4,0,0,1,.484.137.368.368,0,0,1,.067.251l0,.01a.962.962,0,0,0,.6.873.961.961,0,0,0,1.252-.533.958.958,0,0,0-.02-.763Zm-46.753-9.7a.587.587,0,0,1-.39-.542l1.185-8.778a1.085,1.085,0,0,1,.865-.608c.058-.01-.016.023.043,0,1.372-.011,3.848,1.016,3.383,5.291-.5,4.642-3.889,4.716-5.087,4.638Z" transform="translate(-182.377 106.562)" fill="#e23e4f" clip-rule="evenodd"/>
    </clipPath>
    <clipPath id="clip-path-6">
      <path id="Caminho_53" data-name="Caminho 53" d="M271.983-106.568l-.03-.019v0l-.063-.035h0a7.572,7.572,0,0,0-3.711-.9,4.5,4.5,0,0,0-1.2.127c-3.526.479-7.46,2.728-8.347,9.611h0c-.023.161-.046.323-.066.491-.9,7.907,3.419,9.924,7.2,10.088a.525.525,0,0,0,.081.009l.055,0,.067,0v-.006a6.718,6.718,0,0,0,3.782-1.176c.211-.195,1.22-1.5.541-1.674a2.421,2.421,0,0,0-.735-.073,1.1,1.1,0,0,0-.936.476,2.544,2.544,0,0,1-.81.752.878.878,0,0,1-.1.064l0,0c-.063.025-.126.049-.189.07a3.221,3.221,0,0,1-1.549.141c-2.838-.461-4.487-4.846-3.684-9.795s3.755-8.587,6.593-8.127a3.062,3.062,0,0,1,.86.277h0a.584.584,0,0,1,.265.548c0,.067,0,.142,0,.221h.006c0,.006,0,.011,0,.017a1.285,1.285,0,0,0,1.281,1.29,1.285,1.285,0,0,0,1.28-1.29,1.289,1.289,0,0,0-.591-1.085" transform="translate(-258.453 107.53)" fill="#e23e4f" clip-rule="evenodd"/>
    </clipPath>
    <clipPath id="clip-path-7">
      <path id="Caminho_55" data-name="Caminho 55" d="M40.151-107.294c-.149-.984-3.2-19.595-3.2-19.595s-.041-.268-.255-.268c-.153,0-.2.05-.362.216,0,0-2.289,2.34-2.418,2.5a4.031,4.031,0,0,0-.5.911h0s-1.146,3.12-2.9,7.826c-.54,1.4-2.6,7.3-7.08,8.816a7.371,7.371,0,0,1-4.351.038c-4.573-1.556-6.373-8.67-4.121-15.29,2.036-5.984,6.751-10.17,11.015-9.721h0a8.308,8.308,0,0,1,1.005.157h0a2.69,2.69,0,0,1,1.476.694h.006a4.367,4.367,0,0,1,.506,1.48l.014.008a1.8,1.8,0,0,0,1.786,1.618,1.8,1.8,0,0,0,1.795-1.795,1.794,1.794,0,0,0-1.14-1.67.773.773,0,0,0-.072-.035,17.757,17.757,0,0,0-9.809-1.161,19.738,19.738,0,0,0-2.7.748,14.108,14.108,0,0,0-8.538,9.868,14.988,14.988,0,0,0-.544,3.686,12.771,12.771,0,0,0,4.391,10.429,10.174,10.174,0,0,0,4.812,2.163c.269.057.539.1.808.133.145.02.29.038.435.052h.013a10.65,10.65,0,0,0,2.254-.061l.075-.015a12.156,12.156,0,0,0,7.557-5.419,29.234,29.234,0,0,0,1.59-2.733.943.943,0,0,1,1.029-.614h1.791c.806,0,.91.431.98.855l1.166,6.82a.736.736,0,0,0,.782.527h2.173C39.992-106.124,40.3-106.3,40.151-107.294ZM34.5-115.6H33.145c-.8,0-.549-.754-.549-.754.147-.456,1.4-4.566,1.522-4.977l.131.028L35-116.36c.171.788-.5.758-.5.758Z" transform="translate(-9.767 132.765)" fill="#e23e4f" clip-rule="evenodd"/>
    </clipPath>
  </defs>
  <g id="Capricho" transform="translate(-610.5 -352.992)">
    <g id="Grupo_31" data-name="Grupo 31" transform="translate(611 353.5)" clip-path="url(#clip-path)">
      <path id="Caminho_41" data-name="Caminho 41" d="M-3-111.7H113.452v-42.7H-3Z" transform="translate(1.652 153.044)" fill="#fff"/>
    </g>
    <g id="Grupo_32" data-name="Grupo 32" transform="translate(611 353.5)">
      <path id="Caminho_43" data-name="Caminho 43" d="M66.825,5.58a2.111,2.111,0,0,1-.389.277Zm41.748,3.5-.039-.02-.041-.019a8.452,8.452,0,0,0-6.064-.2l-.086.029-.124.051a11.256,11.256,0,0,0-3.146,2.031,3.6,3.6,0,0,0-3.192-2.163h-.034l-3.26,0a3.538,3.538,0,0,0-1.733.48c-.89-3.246-3.645-8.094-12.183-6.425a24.726,24.726,0,0,0-5.987,2.167l-1.223.612c-.116.06-.223.113-.335.17,0-.07.018-.131.018-.2a5.268,5.268,0,0,0-.178-1.362A5.7,5.7,0,0,0,68.138.755a6.189,6.189,0,0,0-7.506,1.278l.066-.054a6.03,6.03,0,0,0-1.673,4.248,7.206,7.206,0,0,0,.07.986v.01c0-.011-.053-.527-.053-.527s.08.728.08.753l.015.06A8.7,8.7,0,0,0,59.6,9.052a6.173,6.173,0,0,0-.979-.133H50.429a3.679,3.679,0,0,0-2.508,1.047,7.5,7.5,0,0,0-3.54-1.174H36.189a3.747,3.747,0,0,0-3.362,2.28l-.018.043c-.019-.126-.032-.219-.038-.266-.3-2.8-2.049-3.217-3.064-3.217a3.161,3.161,0,0,0-1.422.328c.006-.1.029-.189.029-.287a4.655,4.655,0,0,0-2.791-4.277l0-.007-.019-.009a20.193,20.193,0,0,0-11.3-1.436,21.264,21.264,0,0,0-3.352.9A16.958,16.958,0,0,0,.64,14.575,17.765,17.765,0,0,0,0,18.906s0,.449,0,.449A15.375,15.375,0,0,0,5.338,31.481a12.905,12.905,0,0,0,6.05,2.789l.048.01.936.155.073.009.472.056.026,0a13.23,13.23,0,0,0,2.879-.07l.082-.011.106-.02.073-.015a15.116,15.116,0,0,0,9.354-6.653c.334-.526.585-.935.784-1.269.319,1.967.726,4.483.726,4.483l.027.14a3.129,3.129,0,0,0,3.236,2.8L36.8,33.9a3.707,3.707,0,0,0,2.338-.718,3.888,3.888,0,0,0,1.511-2.721l.558-4.2A13.485,13.485,0,0,0,46.77,24.9l-.738,5.363a3.7,3.7,0,0,0-.031.481,3.245,3.245,0,0,0,.574,1.9,3.472,3.472,0,0,0,2.95,1.389l1.491-.006h.1a4.07,4.07,0,0,0,2.295-.739,3.932,3.932,0,0,0,1.48-2.7s.124-.932.267-2.012c.306.214.6.433.871.658l.067.055.107.078c.808.558,1.77,1.306,2.955,2.3a37.352,37.352,0,0,0,19.275,8.108,29.946,29.946,0,0,0,19.211-3.907,3.571,3.571,0,0,0,.538.278,3.654,3.654,0,0,0,4.754-2.024c.022-.054.038-.11.057-.165a9.542,9.542,0,0,0,2.6-.4l.143-.042.1-.043c3-1.224,6.764-4.216,7.7-11.522l.008-.069.06-.479a21.189,21.189,0,0,0,.143-2.405C113.757,12.742,110.6,10.12,108.573,9.08Z" fill="none" stroke="#d5534e" stroke-width="1"/>
    </g>
    <g id="Grupo_33" data-name="Grupo 33" transform="translate(645.314 364.981)" clip-path="url(#clip-path-2)">
      <path id="Caminho_44" data-name="Caminho 44" d="M124.3-89.37h16.749V-111.8H124.3Z" transform="translate(-125.645 110.453)" fill="#e23e4f"/>
    </g>
    <g id="Grupo_34" data-name="Grupo 34" transform="translate(672.599 356.206)" clip-path="url(#clip-path-3)">
      <path id="Caminho_46" data-name="Caminho 46" d="M225.521-113.146H263.2v-31.205H225.521Z" transform="translate(-226.869 143.004)" fill="#e23e4f"/>
    </g>
    <g id="Grupo_35" data-name="Grupo 35" transform="translate(708.126 364.682)" clip-path="url(#clip-path-4)">
      <path id="Caminho_48" data-name="Caminho 48" d="M357.319-90.009h16.562v-22.9H357.319Z" transform="translate(-358.667 111.559)" fill="#e23e4f"/>
    </g>
    <g id="Grupo_36" data-name="Grupo 36" transform="translate(659.622 365.045)" clip-path="url(#clip-path-5)">
      <path id="Caminho_50" data-name="Caminho 50" d="M177.377-83.02h54.529v-28.542H177.377Z" transform="translate(-178.725 110.214)" fill="#e23e4f"/>
    </g>
    <g id="Grupo_37" data-name="Grupo 37" transform="translate(680.129 364.784)" clip-path="url(#clip-path-6)">
      <path id="Caminho_52" data-name="Caminho 52" d="M253.453-89.507h16.816V-112.53H253.453Z" transform="translate(-254.8 111.182)" fill="#e23e4f"/>
    </g>
    <g id="Grupo_38" data-name="Grupo 38" transform="translate(613.094 357.982)" clip-path="url(#clip-path-7)">
      <path id="Caminho_54" data-name="Caminho 54" d="M4.767-107.754H37.886v-30.011H4.767Z" transform="translate(-6.115 136.418)" fill="#e23e4f"/>
    </g>
  </g>
</svg>
