<svg xmlns="http://www.w3.org/2000/svg" width="87.392" height="32" viewBox="0 0 87.392 32">
  <g id="Veja_Rio" data-name="Veja Rio" transform="translate(-389 -717.5)">
    <g id="Grupo_2097" data-name="Grupo 2097" transform="translate(389 717.5)">
      <path id="Caminho_1151" data-name="Caminho 1151" d="M131.825,183.93v2.032h-2.032V183.93Z" transform="translate(-110.625 -183.93)" fill="#e23e4f"/>
      <path id="Caminho_1152" data-name="Caminho 1152" d="M77.507,203.612H70.475a2.364,2.364,0,0,0,2.552,2.448,2.953,2.953,0,0,0,2.24-1.719H77.4a4.7,4.7,0,0,1-4.844,3.386,4.623,4.623,0,1,1,4.948-4.115Zm-6.928-1.459c1.528-.034,3.194.069,4.636-.052-.131-2.394-4.73-2.349-4.636.052Z" transform="translate(-58.86 -196.163)" fill="#e23e4f"/>
      <path id="Caminho_1153" data-name="Caminho 1153" d="M154.111,207.26h-1.927c-.211.02-.057-.325-.1-.469-2.23,1.562-6.579.914-6.667-2.031a2.625,2.625,0,0,1,.573-1.771c1.235-1.32,3.718-.527,5.365-1.042.3-.1.685-.34.729-.677.232-1.785-4.37-1.823-3.8.261h-2.4c0-2.535,1.647-2.912,3.854-3.177,2.02-.243,4.071.544,4.323,2.292.263,1.822-.236,4.219.052,6.615Zm-6.355-3.073a1.111,1.111,0,0,0,.261,1.354c1.378,1.156,4.662-.308,4.011-2.188-.785.581-3.746.16-4.271.833Z" transform="translate(-123.744 -196.009)" fill="#e23e4f"/>
      <path id="Caminho_1154" data-name="Caminho 1154" d="M10,199.607v-.052h2.344c1.07,2,1.968,4.179,2.969,6.251.872-2.167,1.894-4.183,2.865-6.251h2.4c-1.574,2.854-2.968,5.887-4.532,8.751H14.532c-1.536-2.874-2.986-5.835-4.532-8.7Z" transform="translate(-10 -197.055)" fill="#e23e4f"/>
      <path id="Caminho_1155" data-name="Caminho 1155" d="M120.78,199.555h1.98v5.417c0,3.829.332,6.794-3.7,6.459a14.829,14.829,0,0,1-.052-1.979,1.894,1.894,0,0,0,1.354-.156c.7-.518.364-3.491.364-4.636v-4.948c0-.074-.008-.148.052-.156Z" transform="translate(-101.56 -197.055)" fill="#e23e4f"/>
    </g>
    <path id="Caminho_1156" data-name="Caminho 1156" d="M389.628,187.362a2.419,2.419,0,0,1,2.709,3.178,2.466,2.466,0,0,1-4.584.052,2.36,2.36,0,0,1,1.875-3.23Z" transform="translate(61.826 530.711)" fill="#161615"/>
    <path id="Caminho_1157" data-name="Caminho 1157" d="M206.332,187.477c4.818.245,10.413-.415,15.106.208,4.461.593,8.084,2.674,7.761,7.5a6.034,6.034,0,0,1-1.771,3.906,11.647,11.647,0,0,1-5.99,2.865c2.266.693,3.49.872,4.792,2.292a5.133,5.133,0,0,1,1.25,2.865c.141,1.6,0,3.472,0,5.313,0,1.885-.149,4.128,1.3,4.271,1.418.14,1.74-1.27,2.24-2.188.439.151.869.312,1.3.469a6.474,6.474,0,0,1-2.917,3.49c-1.6.735-3.949.323-4.844-.729-2.269-2.668.039-9.948-1.823-13.074-1.452-2.438-5.114-2.018-8.907-2.031-.094,3.136-.052,7.15-.052,10.782,0,1.143-.077,2.507.521,3.073.667.631,1.912.322,3.021.417v1.25H206.28v-1.25c.837-.014,2.27.113,2.865-.312,1.058-.757.677-4.364.677-6.407v-17.71c0-1.441.053-3-.677-3.49-.623-.417-1.971-.2-2.865-.26v-1.094c0-.074-.009-.148.052-.156Zm7.449,1.407v12.5c1.694-.07,3.241.1,4.636,0a6.273,6.273,0,0,0,6.2-5.938c.21-2.883-.836-5.064-2.917-6.042-1.939-.912-4.951-.65-7.865-.677-.061.009-.057.082-.052.156Z" transform="translate(214.129 530.648)" fill="#161615"/>
    <path id="Caminho_1158" data-name="Caminho 1158" d="M378.146,241.873h.1c-.279,2.724-.208,5.9-.208,9.272,0,3.183-.205,6.609,0,9.428a2.471,2.471,0,0,0,.625,1.667c.639.52,2.018.4,3.073.417v1.25H371.01v-1.25c1.883.072,3.3.073,3.49-1.719a41.712,41.712,0,0,0,0-4.219v-8.386c0-1.307.156-3.227-.261-3.907-.484-.789-2.137-.606-3.229-.625v-1.25a25.788,25.788,0,0,0,7.136-.677Z" transform="translate(75.756 484.899)" fill="#161615"/>
    <path id="Caminho_1159" data-name="Caminho 1159" d="M445.176,241.986c4.89-.4,7.669,2.231,9.168,5.417a12.58,12.58,0,0,1,1.094,3.75c.786,6.027-1.681,11.226-6.147,12.918a9.255,9.255,0,0,1-7.917-.677c-3.914-2.3-5.992-7.935-4.428-13.908.838-3.2,2.766-6,5.991-7.084a9.637,9.637,0,0,1,2.24-.417Zm-3.073,3.073c-1.195,1.672-1.511,4.349-1.511,7.917,0,2.788.18,6.313,1.3,8.178a5.05,5.05,0,0,0,6.146,1.875c2.941-1.225,3.334-5.145,3.334-9.532,0-5.309-.428-10.856-5.99-10.261a4.326,4.326,0,0,0-3.281,1.823Z" transform="translate(20.81 484.838)" fill="#161615"/>
  </g>
</svg>
