<svg xmlns="http://www.w3.org/2000/svg" width="116.719" height="40" viewBox="0 0 116.719 40">
  <g id="Grupo_3169" data-name="Grupo 3169" transform="translate(-514.975 -64)">
    <path id="União_1" data-name="União 1" d="M51.012,38.806c-1.494-.791-3.2-2.486-3.2-4.541,0-2.256,2.175-3.379,4.2-4.544a3.9,3.9,0,0,1-.511-.174,3.717,3.717,0,0,1-2.129-2.192,4.856,4.856,0,0,1-4.072,2.218c-2.219,0-3.263-.316-4.212-2.133a6.054,6.054,0,0,1-4.837,2.133,6.186,6.186,0,0,1-3.328-.939v.561c-4.423-.041-9.516-.05-12.544-.009V27.651l2.871-.043V12.247H21.117c-1.677,6.24-3.61,13.538-4.412,16.96H12.323C11.96,28.041,4.424,6.4,2.22,1.552l-2.2-.04L0,0C5.166,0,7.258.092,13.036,0l.017,1.512-2.2.04c2.382,9.043,5.76,18.079,5.76,18.079s2.643-9.305,4.78-18.079l-2.885-.04L18.471,0c3.788.128,4.421,0,8.358,0V1.512l-2.812.04s-1.133,4.137-2.529,9.319a51.07,51.07,0,0,0,8.132-.829l.461.362c-.115,8-.033,17.2-.033,17.2l1.728.026A4.608,4.608,0,0,1,30.66,24.6c0-4.417,3.818-6.248,9.824-6.736V14.213c-.046-1.376-.473-2.575-2.117-2.575a6.993,6.993,0,0,0-2.472.607A3.42,3.42,0,0,1,37.38,15a2.62,2.62,0,0,1-2.672,2.657,2.835,2.835,0,0,1-2.855-2.993c.215-3.869,4.2-5.008,8.335-5.008a8.687,8.687,0,0,1,5,1.169c2.371,1.54,2.322,3.932,2.286,5.68l-.15,7.426c0,1.118-.271,3.123.5,2.991.4-.068.917-.906,1.333-1.521a4.438,4.438,0,0,1,2.748-3.9,5.229,5.229,0,0,1-2.483-4.7c0-3.582,2.655-7.2,8.585-7.2a8.66,8.66,0,0,1,6.659,2.59c.371-2.986,2.279-3.409,2.99-3.464a2.637,2.637,0,0,1,2.927,2.708,2.239,2.239,0,0,1-.015.259A9.755,9.755,0,0,1,76.541,9.66a8.194,8.194,0,0,1,8.094,8.112c0,.81-.478,1.744-1.311,1.744l-9.649,0c-.31,4.992,1.628,7.451,4.123,7.451,2.143,0,5.359-1.574,7.6-4.755V12.247H83.479V10.783a47.085,47.085,0,0,0,8.408-.737l.436.369-.036,2.744c1.526-2.13,2.769-3.519,5.058-3.519,3.051,0,4.344,2.15,5,4.037,1.312-2.217,2.744-4.032,5.567-4.032,4.625,0,5.326,3.735,5.326,7.675,0,1.188-.145,10.3-.145,10.3l2.067.041,0,1.534c-2.461-.061-7.844-.054-10.259,0V27.66l1.3-.041c.061-1.42.2-10.692.2-11.069,0-.68-.014-2.931-1.76-2.931-1.251,0-1.664,1.452-1.937,3l0,11L104,27.66v1.534c-2.4-.051-7.193-.053-9.476,0V27.66l1.294-.041V17.2c0-1.409.023-3.583-1.612-3.583-1.074,0-1.492,1.122-1.776,2.818l0,11.182,1.257.041v1.534c-2.32-.053-7.138-.048-10.21,0V27.66l1.918-.041v-2.8a11.025,11.025,0,0,1-8.856,4.753,9.972,9.972,0,0,1-7.905-15.906l-.1,0c-.855,0-1.8-.666-1.775-1.257.016-.45.007-.727-.3-.727-.208,0-.535.134-.535,1.107,0,.3.071.592.107.931.145,1.023,1.162,5.1-1.887,7.648-2.874,2.4-8.1,1.6-9.426,1.283a.864.864,0,0,0-.483.812c0,.9.874,1.285,2.922,1.285.274,0,6.516-.212,6.818-.212a4.081,4.081,0,0,1,2.693.635,6.246,6.246,0,0,1,2.476,5.117,10.437,10.437,0,0,1-2.715,6.284C64.143,39.159,60.509,40,57.261,40A14.9,14.9,0,0,1,51.012,38.806Zm4.645-8.5a3.949,3.949,0,0,0-1.066,2.357,4.659,4.659,0,0,0,4.761,4.766c2.623,0,6.43-2.314,6.43-4.605,0-2.081-1.806-2.374-3.64-2.473-.869-.047-2.111-.059-3.3-.059C57.52,30.286,56.264,30.3,55.657,30.3ZM38.377,25.96a2.871,2.871,0,0,0,2.107-.91v-4.9C34.817,22,36.723,26.042,38.377,25.96ZM55.7,16.441c0,2.994,1.021,4.476,2.022,4.476.942,0,1.915-1.428,1.915-4.436,0-3.327-.87-4.8-1.915-4.8C56.949,11.686,55.7,12.614,55.7,16.441Zm18.1.244h5.077c-.275-4.212-1.567-4.843-2.539-4.843S74.076,12.722,73.8,16.685ZM114.7,24.836V23.592H115v.822h.5v-.6h.31v.6h.556v-.857h.309v1.28Zm0-2.142V21H115v.634h1.676v.422H115v.635Zm0-1.917v-.423h1.249c.3,0,.462-.128.462-.437a.426.426,0,0,0-.462-.434H114.7V19.1H116a.739.739,0,0,1,.723.839c0,.541-.3.839-.723.839Zm0-2.056v-.577c0-.545.235-.791.544-.791a.562.562,0,0,1,.488.354l.952-.6.029.476-.883.533V18.3h.854v.422Zm.286-.594V18.3h.559v-.172c0-.241-.134-.36-.28-.36S114.982,17.876,114.982,18.126ZM114.7,16.9v-.416h1.985V16.9Zm1.6-.865a1.036,1.036,0,0,0,.11-.488c0-.16-.077-.306-.214-.306-.161,0-.25.181-.385.4-.118.191-.264.461-.618.461a.582.582,0,0,1-.536-.622,1.212,1.212,0,0,1,.119-.571l.283.119a.813.813,0,0,0-.092.354c0,.14.045.294.176.294.166,0,.247-.19.374-.384s.31-.49.6-.49c.387,0,.607.363.607.756a1.171,1.171,0,0,1-.139.6Zm-1.6-1.622v-.393l1.455-.571-1.455-.608v-.365l1.985-.048v.4l-1.2.021,1.211.509v.268l-1.211.482,1.2.048V14.5Zm-.039-3.33a.994.994,0,0,1,1.032-1.047,1.019,1.019,0,0,1,1.03,1.047,1,1,0,0,1-1.03,1.048A1.024,1.024,0,0,1,114.657,11.086Zm.307,0c0,.375.315.6.725.6a.614.614,0,1,0-.725-.6ZM23.356,6.391a3.2,3.2,0,1,1,3.2,3.2A3.2,3.2,0,0,1,23.356,6.391Z" transform="translate(514.975 64)" fill="#6f9c82"/>
  </g>
</svg>
