<svg xmlns="http://www.w3.org/2000/svg" width="147.308" height="24" viewBox="0 0 147.308 24">
  <g id="logo" transform="translate(-135.743 -211.261)">
    <text id="_5_6_de" data-name="5/6 de" transform="translate(200.151 228.232)" fill="#00aeef" font-size="1" font-family="Courier"><tspan x="0" y="0">5/6 de</tspan></text>
    <text id="X" transform="translate(210.057 228.232)" fill="#00aeef" font-size="1" font-family="Courier"><tspan x="0" y="0">X</tspan></text>
    <path id="Caminho_1286" data-name="Caminho 1286" d="M421.617,271.455v2.755m-.565-2.755h4.782m-4.782,2.755H427" transform="translate(-211.679 -44.673)" fill="none" stroke="#00aeef" stroke-miterlimit="10" stroke-width="0.615"/>
    <path id="Caminho_1287" data-name="Caminho 1287" d="M224.1,228.367l4.037-9.411,4.037,9.411Zm11.465,7.905h3.591l-9.823-22.9H226.94l-9.823,22.9h3.591l2.222-5.179h10.412Z" transform="translate(-60.152 -1.562)"/>
    <path id="Caminho_1288" data-name="Caminho 1288" d="M374.747,228.367l4.037-9.411,4.037,9.411Zm11.465,7.905H389.8l-9.823-22.9h-2.393l-9.823,22.9h3.591l2.222-5.179H383.99Z" transform="translate(-172.224 -1.562)"/>
    <path id="Caminho_1289" data-name="Caminho 1289" d="M313.282,221.494c-2.795-1.133-4.276-2.3-4.276-4.2,0-1.234.976-3,3.8-3,1.839,0,4.03,1.321,5.215,2.092l1.8-2.711a11.65,11.65,0,0,0-6.878-2.414c-5.354,0-7.374,3.567-7.374,6.167,0,3.867,2.694,5.633,6.128,7.066,3.333,1.367,5.084,2.633,5.084,4.633,0,1.7-1.482,3.1-3.8,3.1-2.462,0-4.811-1.764-6.045-2.827l-1.716,2.739a11.135,11.135,0,0,0,7.8,3.122c4.377,0,7.508-2.833,7.508-6.3,0-4.067-3.333-5.9-7.239-7.467" transform="translate(-125.77 0)"/>
    <path id="Caminho_1290" data-name="Caminho 1290" d="M147.865,231.988a8.727,8.727,0,1,1,6.234-14.9l2.337-2.314a12,12,0,1,0,0,16.97l-2.337-2.314a8.834,8.834,0,0,1-6.234,2.556" transform="translate(0 0)"/>
    <path id="Caminho_1291" data-name="Caminho 1291" d="M551.379,233.624a10.364,10.364,0,1,1,10.468-10.363,10.416,10.416,0,0,1-10.468,10.363m0-22.363a12,12,0,1,0,12.121,12,12.061,12.061,0,0,0-12.121-12" transform="translate(-299.772 0)"/>
    <path id="Caminho_1292" data-name="Caminho 1292" d="M472.163,230.59a10.363,10.363,0,1,1,0-14.656l1.168-1.157a12,12,0,1,0,0,16.97Z" transform="translate(-235.213 -0.001)"/>
    <path id="Caminho_1293" data-name="Caminho 1293" d="M644.433,224.823V215.01h7.094a4.972,4.972,0,0,1,3.515,1.437,4.862,4.862,0,0,1,0,6.939,4.97,4.97,0,0,1-3.515,1.437Zm14.911,11.449-5.6-10.188c.123-.043.244-.089.364-.14a6.613,6.613,0,0,0,2.107-1.4,6.508,6.508,0,0,0,1.419-2.079,6.481,6.481,0,0,0,0-5.094,6.511,6.511,0,0,0-1.419-2.079,6.657,6.657,0,0,0-4.687-1.916h-8.751v22.9h1.657v-9.813h7.094q.265,0,.526-.02l5.407,9.833Z" transform="translate(-376.293 -1.562)"/>
  </g>
</svg>
