<svg id="BF" xmlns="http://www.w3.org/2000/svg" xmlns:xlink="http://www.w3.org/1999/xlink" width="147.631" height="24" viewBox="0 0 147.631 24">
  <defs>
    <clipPath id="clip-path">
      <rect id="Rectangle_1024" data-name="Rectangle 1024" width="147.632" height="24" fill="#c28f6b"/>
    </clipPath>
  </defs>
  <g id="Group_2474" data-name="Group 2474" clip-path="url(#clip-path)">
    <path id="Path_1099" data-name="Path 1099" d="M174.413,233.651a3.949,3.949,0,0,1-3.028,1.4c-1.434,0-2.263-.637-2.263-1.721a1.659,1.659,0,0,1,1.37-1.562,7.165,7.165,0,0,1,2.325-.255,11.508,11.508,0,0,1,1.562.127c0,1.4,0,1.53.031,2.008m6.629,4.144v-3.666a2.568,2.568,0,0,1-1.05.225.931.931,0,0,1-.988-.67,8.669,8.669,0,0,1-.159-2.2c0-1.084.032-2.486.032-3.665,0-2.486-.574-3.825-1.658-4.749a7.311,7.311,0,0,0-4.844-1.435,11.884,11.884,0,0,0-6.47,1.881v3.857h.128a8.99,8.99,0,0,1,5.387-1.817,3.384,3.384,0,0,1,2.423.765,2.077,2.077,0,0,1,.542,1.562v.605a9.261,9.261,0,0,0-1.913-.191,12.935,12.935,0,0,0-4.557.637,4.536,4.536,0,0,0-3.251,4.494c0,3.092,2.295,5,5.674,5a5.129,5.129,0,0,0,4.589-2.072c.511,1.243,1.849,1.944,3.6,1.944a5.951,5.951,0,0,0,2.517-.51m-38.12.225V227.977a3.647,3.647,0,0,1,3.347-2.072,2.085,2.085,0,0,1,2.167,1.211,7.9,7.9,0,0,1,.255,2.325v8.574h4.561v-8.925c0-.319,0-.86-.032-1.211a3.641,3.641,0,0,1,3.315-1.976,2.1,2.1,0,0,1,2.2,1.211,7.906,7.906,0,0,1,.255,2.325v8.574h4.557v-9.43a13.158,13.158,0,0,0-.287-3.475c-.542-2.072-2.2-3.41-5.068-3.41a6.232,6.232,0,0,0-5.45,2.836c-.605-1.754-2.167-2.836-4.813-2.836a5.753,5.753,0,0,0-5.132,2.836v-2.454h-4.43v15.936Zm-12.335,0v-9.564c.415-1.5,1.658-2.359,3.634-2.359a4.175,4.175,0,0,1,2.2.542h.127v-4.494a3.4,3.4,0,0,0-1.912-.45,4.209,4.209,0,0,0-4.144,2.869v-2.486h-4.464v15.936Zm-11.824-7.969a4.073,4.073,0,0,1-4.079,4.4,4.125,4.125,0,0,1-4.144-4.4,4.212,4.212,0,0,1,4.175-4.43c2.485,0,4.05,1.976,4.05,4.43m4.65-.031c0-4.94-3.538-8.383-8.7-8.383-4.973,0-8.829,3.538-8.829,8.414s3.569,8.383,8.733,8.383,8.8-3.57,8.8-8.414m-21.737,8v-12.3h3.506v-3.633H101.68v-.928a3.332,3.332,0,0,1,.542-2.1,2.537,2.537,0,0,1,1.976-.7,4.151,4.151,0,0,1,2.135.605h.128v-3.856a7.544,7.544,0,0,0-7.873,1.02c-.86.86-1.465,2.263-1.465,4.621v1.339H94.859v3.633h2.264v12.3Zm-21.035-4.369a3.949,3.949,0,0,1-3.029,1.4c-1.434,0-2.263-.637-2.263-1.721a1.66,1.66,0,0,1,1.371-1.562,7.164,7.164,0,0,1,2.325-.255,11.486,11.486,0,0,1,1.562.127c0,1.4,0,1.53.032,2.008m6.629,4.144v-3.666a2.57,2.57,0,0,1-1.05.225.931.931,0,0,1-.988-.67,8.667,8.667,0,0,1-.159-2.2c0-1.084.032-2.486.032-3.665,0-2.486-.574-3.825-1.657-4.749a7.311,7.311,0,0,0-4.844-1.435,11.887,11.887,0,0,0-6.471,1.881v3.857h.127a8.99,8.99,0,0,1,5.387-1.816,3.384,3.384,0,0,1,2.422.765,2.078,2.078,0,0,1,.541,1.562v.605A9.26,9.26,0,0,0,78.7,228.3a12.94,12.94,0,0,0-4.558.637,4.537,4.537,0,0,0-3.251,4.494c0,3.092,2.295,5,5.673,5a5.131,5.131,0,0,0,4.59-2.072c.51,1.243,1.849,1.944,3.6,1.944a5.957,5.957,0,0,0,2.518-.51M65.25,230.049a4.072,4.072,0,0,1-4.079,4.4,4.125,4.125,0,0,1-4.143-4.4,4.212,4.212,0,0,1,4.175-4.43c2.486,0,4.05,1.976,4.05,4.43m4.65-.031c0-4.94-3.538-8.383-8.7-8.383-4.972,0-8.829,3.538-8.829,8.414s3.57,8.383,8.733,8.383,8.8-3.57,8.8-8.414m-31.936,1.976v-3.7a4.306,4.306,0,0,1,4.016-2.709c2.325,0,4.05,1.5,4.05,4.43,0,2.869-1.562,4.494-4.015,4.494a4.216,4.216,0,0,1-4.05-2.518m-.191,6.024v-1.913a6.123,6.123,0,0,0,5.259,2.325c3.985,0,7.681-3,7.681-8.475s-3.375-8.319-7.458-8.319a6.328,6.328,0,0,0-5.291,2.677v-9.5H33.41v23.2Z" transform="translate(-33.41 -214.432)" fill="#c28f6b"/>
  </g>
</svg>
