<svg xmlns="http://www.w3.org/2000/svg" width="156.885" height="32" viewBox="0 0 156.885 32">
  <g id="veja_saude_horizontal" transform="translate(-26.214 -136.316)">
    <g id="Grupo_3168" data-name="Grupo 3168" transform="translate(26.214 136.316)">
      <path id="Caminho_9037" data-name="Caminho 9037" d="M245.195,172.376h-2.965v-.725c-.081-.019-.118.038-.163.069a7.044,7.044,0,0,1-2.078.971,7.486,7.486,0,0,1-2.356.251,9.1,9.1,0,0,1-1.894-.258,5.55,5.55,0,0,1-1.923-.873,3.87,3.87,0,0,1-1.628-2.86,4.416,4.416,0,0,1,.17-1.776,3.156,3.156,0,0,1,1.943-2.059,5.211,5.211,0,0,1,1.65-.33c.822-.045,1.644-.095,2.466-.142.433-.025.867-.047,1.3-.074a6.8,6.8,0,0,0,1.246-.145,2.261,2.261,0,0,0,.728-.3.981.981,0,0,0,.471-.7,1.506,1.506,0,0,0-.508-1.373,2.253,2.253,0,0,0-.822-.448,4.244,4.244,0,0,0-1.223-.191,5.214,5.214,0,0,0-2.1.341,2.721,2.721,0,0,0-.951.611,1.727,1.727,0,0,0-.521,1.191c0,.053-.009.106-.013.159h-3.157a.225.225,0,0,1-.024-.062,3.929,3.929,0,0,1,1.756-3.578,5.489,5.489,0,0,1,2.087-.827,11.55,11.55,0,0,1,1.977-.206c.429-.011.859-.017,1.287,0a8.07,8.07,0,0,1,2.648.5,4.37,4.37,0,0,1,1.652,1.079,3.44,3.44,0,0,1,.936,2.244c.005.109.006.219.006.329v9.181Zm-2.922-6c-.049.021-.068.028-.085.037a3.833,3.833,0,0,1-1.044.4,15.3,15.3,0,0,1-2.278.323c-.65.061-1.3.118-1.95.187a2.328,2.328,0,0,0-.859.243,1.02,1.02,0,0,0-.574.93,1.512,1.512,0,0,0,.6,1.261,2.6,2.6,0,0,0,.958.474,5.051,5.051,0,0,0,1.722.143,4.782,4.782,0,0,0,1.484-.325,3.005,3.005,0,0,0,1.756-1.7,4,4,0,0,0,.266-1.418C242.277,166.76,242.273,166.583,242.273,166.38Z" transform="translate(-198.996 -155.371)" fill="#d1214e" fill-rule="evenodd"/>
      <path id="Caminho_9038" data-name="Caminho 9038" d="M125.395,168.671h3.314c-.018.066-.03.122-.048.175a7.11,7.11,0,0,1-3.3,3.974,6.829,6.829,0,0,1-2.806.876,7.8,7.8,0,0,1-3.59-.458,6.275,6.275,0,0,1-3.888-4.348,7.276,7.276,0,0,1-.264-2.415,6.9,6.9,0,0,1,4.66-6.163,7.021,7.021,0,0,1,2.951-.339,7.428,7.428,0,0,1,3.942,1.51,6.441,6.441,0,0,1,2.423,3.907,8.932,8.932,0,0,1,.158,1.875c0,.108,0,.216,0,.338H118.185c-.006.08-.016.148-.015.215a3.435,3.435,0,0,0,2.711,3.345,3.9,3.9,0,0,0,1.28.043,4.233,4.233,0,0,0,1.38-.375,3.484,3.484,0,0,0,1.687-1.771C125.286,168.935,125.337,168.805,125.395,168.671Zm.141-3.3c-.009-.07-.013-.129-.025-.186a3.159,3.159,0,0,0-1.1-1.841,4,4,0,0,0-3.231-.9,3.405,3.405,0,0,0-2.867,2.655c-.019.086-.031.173-.048.271Z" transform="translate(-100.536 -156.137)" fill="#d1214e" fill-rule="evenodd"/>
      <path id="Caminho_9039" data-name="Caminho 9039" d="M26.214,160.949h3.531l4.364,9.21.026,0a.024.024,0,0,0,.012-.007.382.382,0,0,0,.024-.038c.007-.013.014-.027.02-.04l4.18-9.08a.117.117,0,0,1,.017-.024.141.141,0,0,1,.014-.017h3.621c.022.067-.027.113-.052.162q-.669,1.3-1.342,2.591-2.623,5.063-5.243,10.127a.25.25,0,0,1-.265.156q-.989-.009-1.976,0a.26.26,0,0,1-.275-.163Q30.333,168.91,27.788,164l-1.494-2.883C26.27,161.069,26.248,161.02,26.214,160.949Z" transform="translate(-26.214 -156.982)" fill="#d1214e" fill-rule="evenodd"/>
      <path id="Caminho_9040" data-name="Caminho 9040" d="M193.773,161.72h2.939c0,.057.008.109.008.162q0,.95,0,1.9,0,5.45,0,10.9a6.314,6.314,0,0,1-.485,2.465,3.57,3.57,0,0,1-1.687,1.835,4.506,4.506,0,0,1-1.222.389,4.556,4.556,0,0,1-.967.088c-.349-.006-.7,0-1.048,0h-.143c-.041-.114-.053-2.478-.015-2.676.041,0,.084-.007.128-.008l.718,0a1.747,1.747,0,0,0,1.766-1.767q0-6.566,0-13.131C193.765,161.83,193.77,161.782,193.773,161.72Z" transform="translate(-164.573 -157.629)" fill="#d1214e" fill-rule="evenodd"/>
      <path id="Caminho_9041" data-name="Caminho 9041" d="M211.084,136.316v3.075h-2.923v-3.075Z" transform="translate(-178.859 -136.316)" fill="#d1214e" fill-rule="evenodd"/>
    </g>
    <path id="Caminho_9042" data-name="Caminho 9042" d="M344.586,178.791c0-4.664-3.254-6.782-8.468-8.469-3.487-1.293-4.35-1.919-4.35-3.134v-.042c0-1.018.9-1.8,2.508-1.8a10.9,10.9,0,0,1,6.39,2.511l3.568-5.254a15.017,15.017,0,0,0-9.8-3.332c-6,0-9.8,3.488-9.8,8.468v.118c0,4.977,3.646,6.862,8.821,8.623,3.215,1.136,4.04,1.8,4.04,2.9v.038c0,1.178-.982,2-2.864,2a11.956,11.956,0,0,1-7.447-3.1l-3.765,5.136a16.717,16.717,0,0,0,11.173,4.037c5.88,0,10-3.294,10-8.628v-.076Z" transform="translate(-249.34 -19.255)"/>
    <path id="Caminho_9043" data-name="Caminho 9043" d="M452.589,160.72l-9.642,27.6H450.2l1.567-4.942h8.624L462,188.321h7.408l-9.684-27.6Zm.942,17.017,2.547-8.038,2.548,8.038Z" transform="translate(-349.62 -20.474)"/>
    <path id="Caminho_9044" data-name="Caminho 9044" d="M608.552,178.484c0,3.252-1.57,4.743-4.039,4.743-2.43,0-4.036-1.567-4.036-4.862v-16.66h-7.1V178.29c0,7.8,4.39,11.327,11.094,11.327s11.211-3.489,11.211-11.446V161.706h-7.133Z" transform="translate(-475.827 -21.301)"/>
    <path id="Caminho_9045" data-name="Caminho 9045" d="M745.773,161.706h-9.017v27.443h8.9c8.9,0,13.959-5.491,13.959-13.565v-.471C759.611,167.035,754.594,161.706,745.773,161.706Zm6.625,13.915c0,4.9-2.627,7.213-6.546,7.213h-2.04V168.017h2.04c3.919,0,6.546,2.312,6.546,7.254Z" transform="translate(-596.112 -21.301)"/>
    <path id="Caminho_9046" data-name="Caminho 9046" d="M889.056,182.952v-4.7H899.8v-5.844H889.056V167.9h11.919v-6.193h-18.9v27.442h19.052v-6.2Z" transform="translate(-718.031 -21.301)"/>
    <path id="Caminho_9047" data-name="Caminho 9047" d="M656.666,136.316h-7.679l-2.633,3.96h4.919Z" transform="translate(-520.269 0)"/>
  </g>
</svg>
