<svg xmlns="http://www.w3.org/2000/svg" width="300" height="91.898" viewBox="0 0 300 91.898">
  <g id="Grupo_Abril" data-name="Grupo Abril" transform="translate(-218 -236.281)">
    <path id="Caminho_9059" data-name="Caminho 9059" d="M453.765,274.2c-4.228-5.11-8.232-6.748-12.112-7.442,4.829-5.4,5.282-11.149,3.588-18.852-7.092.889-14.007,3.808-16.651,10.135a16.16,16.16,0,0,0-2.114-2.06c1.7-5.171.962-9.912-1.388-16.087-5.538,2.325-8.8,3.719-12.271,8.264a20.124,20.124,0,0,0-3.8-6.815,25.425,25.425,0,0,0-7.249,6.177c-1.321-4.022-4.256-7.494-11.318-11.242-4.629,7.609-4.8,12.591-3.286,17.579-5.21-1.358-9.041-.218-14.3,1.216,1.562,5.386,3.266,9.077,6.785,12.258-2.939,1.081-5.625,3.1-8.837,5.854,2.952,3.434,5.233,6.134,9.165,7.68-2.24,1.988-4.528,6.3-5.838,10.138,3.881,2.171,18.468,6.477,25.447-5.712,3.47,6.026,3.988,10.523,3.988,18.831,0,6.573-2.583,17.211-7.354,23.3h30.213c-4.77-6.085-7.35-16.723-7.35-23.3,0-8.5.533-13,4.217-19.243,3.549,9.516,15.027,9.835,22.119,7.23-.559-3.628-1.71-7.44-3.788-10.2,3.829-.611,8.279-2.525,12.128-7.71Zm-76.118-.493c4.592-4.1,12.3-2.9,15.649,1.147-4.79,3.482-11.292,3.618-15.649-1.147Zm2.808,14.675c2.324-6.312,8.8-8.205,15.542-6.266-3.286,6.527-9.425,7.876-15.542,6.266Zm-1.579-30.126c8.36-1.417,14.264,2.069,18.049,9.576-9.664.811-15.6-3.408-18.049-9.576Zm17.985.994a12.694,12.694,0,0,1-4.556-16.41,12.582,12.582,0,0,1,4.556,16.41Zm10.916-11.319c3.561,5.984,2.4,13.757-3.3,17.42a13.065,13.065,0,0,1,3.3-17.42Zm-8.336,30.439c.842-6.04,5.525-11.156,13.344-10.967a12.744,12.744,0,0,1-13.344,10.967Zm15.572,9.392a10.559,10.559,0,0,1,1.643-15.627c4.132,5.1,3.026,12.374-1.643,15.627Zm-.153-25.238c-2-5.25-.019-12.6,7.4-16.393,2.015,7.548-1.939,14.107-7.4,16.393Zm9.447,13.792a11.206,11.206,0,0,1-.04-16.105c3.893,3.454,4.506,11.216.04,16.105Zm16.987-22.852c1.076,4.908-2.092,12.493-9.524,13.475a11.844,11.844,0,0,1,9.524-13.475Zm-14.283,27.7c5.829-.934,12.031,2.02,12.577,7.482-6.133,1.241-11.6-1.632-12.577-7.482Zm2.673-6.7c3.423-3.877,12.866-4.877,17.3-.169-3.611,4.623-14.164,3.829-17.3.169Z" transform="translate(-39.68 0)" fill="#008457"/>
    <path id="Caminho_9060" data-name="Caminho 9060" d="M475.493,346.6l13.171-36.458h9.674L511.01,346.6h-8l-2.625-7.728H485.94l-2.724,7.728Zm22.924-13.784-5.055-15.552-5.4,15.552Z" transform="translate(-66.859 -19.178)" fill="#008457"/>
    <path id="Caminho_9061" data-name="Caminho 9061" d="M574.543,329.759c1.622-3.989,5.978-5.126,9.766-5.026v6.976c-8.5-1.2-8.989,3.653-8.989,6.485v12.193H567.8V325.042h6.74v4.717Z" transform="translate(-90.828 -22.965)" fill="#008457"/>
    <path id="Caminho_9062" data-name="Caminho 9062" d="M602.661,321.254V346.6h-7.578V321.254Zm0-11.113v5.881h-7.589v-5.881Z" transform="translate(-97.908 -19.178)" fill="#008457"/>
    <path id="Caminho_9063" data-name="Caminho 9063" d="M620.559,310.141V346.6h-7.575V310.141Z" transform="translate(-102.559 -19.178)" fill="#008457"/>
    <path id="Caminho_9064" data-name="Caminho 9064" d="M542.027,320.6a8.6,8.6,0,0,0-6.825,3.577V310.141h-7.61V346.6h7.61v-3.592a8.475,8.475,0,0,0,7.792,4.35c7.42,0,10.692-6.926,10.692-13.434,0-6.821-3.845-13.326-11.659-13.326Zm-1.157,21.781c-3.449,0-5.62-3.772-5.62-8.416s1.917-8.419,5.62-8.419c3.5,0,5.39,3.768,5.39,8.419s-2.286,8.416-5.39,8.416Z" transform="translate(-80.387 -19.178)" fill="#008457"/>
    <path id="Caminho_9065" data-name="Caminho 9065" d="M239.385,325.484a25.865,25.865,0,0,0-7.178-1.09c-8.795,0-14.207,5.675-14.207,13.642,0,7.742,4.773,12.478,12.815,12.478a23.94,23.94,0,0,0,8.682-1.58v-12.1h-4.886v8.832a10.841,10.841,0,0,1-3.232.451c-5.149,0-8.08-3.157-8.08-8.531,0-5.675,3.608-8.832,8.607-8.832a18.773,18.773,0,0,1,6.727,1.279l.752-4.548Zm23.451,24.654-6.089-8.53c-.639-.865-1.353-1.842-2.067-2.781,3.834-.6,6.464-3.308,6.464-7.066,0-5.187-3.608-7.141-9.208-7.141-2.931,0-5.3.038-7.291.15v25.369h4.886V339.652h.188l7.066,10.486Zm-6.8-17.89c0,2.368-1.8,3.871-4.735,3.871-.751,0-1.428-.038-1.766-.076v-7.327a13.777,13.777,0,0,1,1.917-.113c3.082,0,4.585,1.2,4.585,3.646Zm30.254,8.043V324.769h-4.848v15.823c0,4.322-1.578,5.9-5.337,5.9-4.209,0-5.261-2.255-5.261-5.449V324.77h-4.886v16.574c0,4.849,1.8,9.208,9.81,9.208,6.69,0,10.523-3.309,10.523-10.261Zm22.246-7.817c0-4.961-3.42-7.855-9.659-7.855-2.48,0-4.735.038-6.8.15v25.369h4.886v-8.945a13.137,13.137,0,0,0,1.654.076c6.163,0,9.921-3.872,9.921-8.8Zm-5.074.3c0,2.743-2.067,4.4-5.074,4.434a9.66,9.66,0,0,1-1.428-.112v-8.456c.564-.039,1.128-.039,1.729-.039,3.307,0,4.773,1.616,4.773,4.173Zm30.962,4.321c0-8.683-4.773-12.741-11.538-12.741-6.8,0-12.4,5.036-12.4,13.417,0,7.854,3.8,12.778,11.538,12.778,6.878,0,12.4-5.074,12.4-13.454Zm-5.224.375c0,6.089-3.532,8.644-6.84,8.644-4.547,0-6.652-3.5-6.652-8.869,0-5.713,3.232-8.494,6.728-8.494,4.359,0,6.765,3.082,6.765,8.719Z" transform="translate(0 -22.869)" fill="#008457"/>
  </g>
</svg>
