<?xml version="1.0" encoding="utf-8"?>
<!-- Generator: Adobe Illustrator 19.0.0, SVG Export Plug-In . SVG Version: 6.00 Build 0)  -->
<svg version="1.1" baseProfile="basic" id="ba01cd4d-4ea5-4776-b236-fd186a0da3a4"
	 xmlns="http://www.w3.org/2000/svg" xmlns:xlink="http://www.w3.org/1999/xlink" x="0px" y="0px" viewBox="615 103.1 603 587.9"
	 xml:space="preserve">
<path fill="#3F3D56" d="M721.4,655.2l-1.3-0.5c-0.3-0.1-28-10.7-41-34.8c-13-24.1-6.6-53.1-6.6-53.4l0.3-1.3l1.3,0.5
	c0.3,0.1,28,10.7,41,34.8c13,24.1,6.6,53.1,6.6,53.4L721.4,655.2z M681.3,618.8c11,20.4,32.9,30.8,38.4,33.2
	c1.1-5.9,4.4-30-6.6-50.3c-11-20.3-32.9-30.8-38.4-33.2C673.6,574.4,670.3,598.4,681.3,618.8L681.3,618.8z"/>
<path fill="#D0CDE1" d="M689.1,611.4c23.3,14,32.3,41.9,32.3,41.9s-28.8,5.1-52.2-8.9S637,602.5,637,602.5S665.8,597.4,689.1,611.4z
	"/>
<path fill="#3F3D56" d="M1133.3,653.8c-0.1-0.3-6.4-29.3,6.6-53.4c13-24.1,40.7-34.7,41-34.8l1.3-0.5l0.3,1.3
	c0.1,0.3,6.4,29.3-6.6,53.4c-13,24.1-40.7,34.7-41,34.8l-1.3,0.5L1133.3,653.8z M1180.3,568.4c-5.6,2.4-27.5,12.8-38.4,33.2
	c-11,20.3-7.7,44.4-6.6,50.3c5.5-2.4,27.4-12.8,38.4-33.2C1184.7,598.4,1181.4,574.4,1180.3,568.4L1180.3,568.4z"/>
<path fill="#CE7AC8" d="M1165.9,611.4c-23.3,14-32.3,41.9-32.3,41.9s28.8,5.1,52.2-8.9s32.3-41.9,32.3-41.9
	S1189.2,597.4,1165.9,611.4z"/>
<rect x="626.5" y="652.7" fill="#3F3D56" width="556.1" height="2.4"/>
<path fill="#2F2E41" d="M964,238.4c0,0-16.5-2.4-24.8,28.4c-8.3,30.7-10.6,33.1-10.6,33.1s48.5,7.1,49.6,4.7
	C979.4,302.2,988.9,245.5,964,238.4z"/>
<circle fill="#FFB8B8" cx="954.6" cy="194.7" r="31.9"/>
<path fill="#FFB8B8" d="M940.4,220.7c0,0,10.6,27.2,7.1,30.7s43.7,8.3,43.7,8.3s3.5-17.7-10.6-28.4c0,0-5.9-17.7-4.7-21.3
	S940.4,220.7,940.4,220.7z"/>
<path fill="#2F2E41" d="M968.8,232.5c-12.1,4.6-23,11.8-31.9,21.3c-14.2,15.4-21.3,20.1-21.3,20.1s-16.5,5.9-10.6,34.3
	c3,14.2,0.9,30.1-1.9,42.5c-4.3,19.3-6.4,38.9-6.4,58.7v12.2c0,0-108.7,228.1-72.1,243.4s69.7,20.1,72.1,16.5s44.9-187.9,44.9-187.9
	S953.4,691,982.9,691s78-8.3,78-8.3l-60.3-236.3c0,0,14.2-40.2-21.3-68.5l-4.7-13c19.6,0,28.6-124.1,8.3-134.7
	C982.9,230.1,978.2,226.6,968.8,232.5z"/>
<path fill="#FFB8B8" d="M939.2,296.3L922.7,340l-39,81.5c0,0-17.7,53.2-3.5,53.2s24.8-50.8,24.8-50.8l43.7-68.5l24.8-61.4
	L939.2,296.3z"/>
<ellipse fill="#2F2E41" cx="860.6" cy="679.2" rx="20.7" ry="11.8"/>
<ellipse fill="#2F2E41" cx="1019" cy="679.2" rx="20.7" ry="11.8"/>
<path fill="#2F2E41" d="M966.9,149.9L966.9,149.9c-1.6,0-3.3,0.2-4.9,0.5c-2.9-1.4-6.1-2.1-9.3-2.2h-0.8c-16.3,0-29.6,14.8-29.6,33
	v0h5.5l0.9-6.7l1.3,6.7h4.6c-1.4,5.4-2.1,11-2.1,16.6v33.6h8.3l4.8-12.5l-1.2,12.5h53.2l4.4-11.3l-1.1,11.3h6v-26.4
	C1006.7,174.6,988.9,149.9,966.9,149.9z"/>
<path fill="#D0CDE1" d="M955.2,142.6h7.8c3.4,0,6.1,2.7,6.1,6.1l0,0v35.8c0,3.4-2.7,6.1-6.1,6.1h-7.8c-3.4,0-6.1-2.7-6.1-6.1
	c0,0,0,0,0,0v-35.8C949.1,145.3,951.8,142.6,955.2,142.6z"/>
<circle fill="#CE7AC8" cx="959.1" cy="199.6" r="18"/>
<circle fill="#D0CDE1" cx="959.1" cy="199.6" r="9"/>
<circle fill="#CE7AC8" cx="959.1" cy="199.6" r="4"/>
</svg>
