<?xml version="1.0" encoding="utf-8"?>
<!-- Generator: Adobe Illustrator 19.0.0, SVG Export Plug-In . SVG Version: 6.00 Build 0)  -->
<svg version="1.1" id="cbb92aef-a4c8-4910-9d60-405154a20c92"
	 xmlns="http://www.w3.org/2000/svg" xmlns:xlink="http://www.w3.org/1999/xlink" x="0px" y="0px" viewBox="158 -128.1 1116.2 642"
	 style="enable-background:new 158 -128.1 1116.2 642;" xml:space="preserve">
<style type="text/css">
	.st0{opacity:0.1;fill:#0F4C81;enable-background:new    ;}
	.st1{fill:none;stroke:#535461;stroke-width:2;stroke-miterlimit:10;}
	.st2{fill:#0F4C81;}
	.st3{opacity:0.25;fill:#0F4C81;enable-background:new    ;}
	.st4{fill:url(#SVGID_1_);}
	.st5{fill:#FFFFFF;}
	.st6{fill:#5A5773;}
	.st7{opacity:0.2;fill:#5A5773;enable-background:new    ;}
	.st8{opacity:0.6;fill:#0F4C81;enable-background:new    ;}
	.st9{fill:url(#SVGID_2_);}
	.st10{fill:#EFB7B9;}
	.st11{opacity:0.1;enable-background:new    ;}
	.st12{fill:#FF6484;}
	.st13{fill:#444053;}
	.st14{fill:#A1616A;}
	.st15{fill:#925978;}
	.st16{opacity:0.1;}
</style>
<g>
	<path class="st0" d="M1247.2,454.7c-1,0.7-1.9,1.4-2.9,2.1c-3.6,2.6-7.4,4.9-11.3,6.9c-20.6,10.8-45.9,16.2-70.7,19.8
		c-55.4,8.1-112,9.7-168.3,11.2c-152.2,4.2-304.8,8.4-456.7-1.3c-60-3.8-121.3-10.2-175.7-29.7c-7.8-2.8-15.4-5.9-22.9-9.2
		c-15.1-6.8-29.7-15.1-41.8-25c-11.4-9.3-20.6-19.9-26.1-32.1c-11.5-25.2-5.4-53.6,7.7-78.3c5.4-10,11.6-19.6,18.4-28.8
		c10.1-13.9,21.3-27.5,31.5-41.4c36.3-49.5,59.9-112.1,26.4-162.8c-9.6-14.6-23.5-27.4-31.4-42.6c-10-19.5-9.2-41.1-6.1-62.1
		c0.4-2.7,0.9-5.3,1.3-7.9c5.4-31.1,15.7-64.7,47.2-84.1c32.7-20.2,79.2-19.2,119.8-12c63.2,11.3,121.4,34.8,180.3,56
		S786.5-26.1,851.2-24C908.4-22.2,975-36,1012.9-71.7c36.8-34.8,106.1-37.4,156-16.4c34.3,14.4,59.8,40.4,70.6,69.6
		c2.2,5.9,3.8,11.9,4.7,18.1c0.9,5.7,1.1,11.4,0.8,17.1c-0.2,2.8-0.4,5.6-0.8,8.4c-8.3,57.6-68.4,103.1-104.9,154.5
		c-17.8,25.1-30.4,55.3-18.2,82.4c18.7,41.3,83.7,56,123,86.7c7.4,5.6,13.9,12.3,19.3,19.8C1282.6,395.9,1275.5,432.8,1247.2,454.7z
		"/>
	<g id="d00831fc-a64a-413c-b5dd-d7bd6eafa01d">
		<path class="st1" d="M416,196.8c0,0-46-81.5-115.3-105c-29.1-9.9-54.5-28.4-71.8-53.7c-8.2-12-15.3-24.8-21.2-38.1"/>
		<path class="st2" d="M164-15.2c7.9,7.6,44.7,15.6,44.7,15.6s-9-36.5-16.9-44.2c-8-7.6-20.6-7.2-28.2,0.8
			C156.2-35.1,156.4-22.8,164-15.2L164-15.2z"/>
		<path class="st2" d="M184.9,50.9c10.8,2.1,46-11.2,46-11.2S203.4,14,192.6,11.8c-10.8-1.9-21.2,5.3-23.1,16.2
			C167.7,38.5,174.4,48.6,184.9,50.9L184.9,50.9z"/>
		<path class="st2" d="M260.6,122.5c10.4-3.6,34-32.9,34-32.9s-36.7-8.4-47.1-4.8c-10.5,3.3-16.4,14.4-13.1,24.9
			c3.3,10.5,14.4,16.4,24.9,13.1C259.8,122.7,260.1,122.6,260.6,122.5L260.6,122.5z"/>
		<path class="st2" d="M330.1,163.6c10.9-1.8,39.1-26.6,39.1-26.6s-34.7-14.5-45.6-12.7c-10.9,1.8-18.2,12-16.4,22.9
			C309,158.1,319.2,165.4,330.1,163.6L330.1,163.6z"/>
		<path class="st2" d="M261.5,11.2c0,11-19.9,42.9-19.9,42.9s-19.9-31.9-20-42.9c-0.2-11,8.5-20.1,19.5-20.4s20.1,8.5,20.4,19.5
			C261.5,10.6,261.5,10.9,261.5,11.2L261.5,11.2z"/>
		<path class="st2" d="M342.2,60.5c-3.3,10.5-31.8,35-31.8,35s-9.5-36.4-6.2-47c3.7-10.4,15.2-15.7,25.5-12
			C339.3,40,344.8,50.4,342.2,60.5L342.2,60.5z"/>
		<path class="st2" d="M414,119c-1.5,10.9-25.5,39.9-25.5,39.9s-15.5-34.3-14-45.2c1.6-10.9,11.8-18.4,22.7-16.8
			C407.9,98.5,415.3,108.3,414,119L414,119z"/>
		<path class="st3" d="M164-15.2c7.9,7.6,44.7,15.6,44.7,15.6s-9-36.5-16.9-44.2c-8-7.6-20.6-7.2-28.2,0.8
			C156.2-35.1,156.4-22.8,164-15.2L164-15.2z"/>
		<path class="st3" d="M184.9,50.9c10.8,2.1,46-11.2,46-11.2S203.4,14,192.6,11.8c-10.8-1.9-21.2,5.3-23.1,16.2
			C167.7,38.5,174.4,48.6,184.9,50.9L184.9,50.9z"/>
		<path class="st3" d="M260.6,122.5c10.4-3.6,34-32.9,34-32.9s-36.7-8.4-47.1-4.8c-10.5,3.3-16.4,14.4-13.1,24.9
			c3.3,10.5,14.4,16.4,24.9,13.1C259.8,122.7,260.1,122.6,260.6,122.5L260.6,122.5z"/>
		<path class="st3" d="M330.1,163.6c10.9-1.8,39.1-26.6,39.1-26.6s-34.7-14.5-45.6-12.7c-10.9,1.8-18.2,12-16.4,22.9
			C309,158.1,319.2,165.4,330.1,163.6L330.1,163.6z"/>
		<path class="st3" d="M261.5,11.2c0,11-19.9,42.9-19.9,42.9s-19.9-31.9-20-42.9c-0.2-11,8.5-20.1,19.5-20.4s20.1,8.5,20.4,19.5
			C261.5,10.6,261.5,10.9,261.5,11.2L261.5,11.2z"/>
		<path class="st3" d="M342.2,60.5c-3.3,10.5-31.8,35-31.8,35s-9.5-36.4-6.2-47c3.7-10.4,15.2-15.7,25.5-12
			C339.3,40,344.8,50.4,342.2,60.5L342.2,60.5z"/>
		<path class="st3" d="M414,119c-1.5,10.9-25.5,39.9-25.5,39.9s-15.5-34.3-14-45.2c1.6-10.9,11.8-18.4,22.7-16.8
			C407.9,98.5,415.3,108.3,414,119L414,119z"/>
		<path class="st1" d="M413.3,195.2c0,0-9-93.2-62.9-142.7c-22.6-20.8-38.3-48-43.9-78.2c-2.6-14.3-3.9-28.9-3.9-43.5"/>
		<path class="st2" d="M268.9-100.7c4.1,10.2,34.5,32.4,34.5,32.4s6.6-37,2.4-47.3c-4.1-10.2-15.7-15.2-25.9-11
			C269.7-122.5,264.7-110.9,268.9-100.7L268.9-100.7z"/>
		<path class="st2" d="M261.1-31.9c9,6.3,46.6,8.4,46.6,8.4s-14.6-34.7-23.6-41c-9-6.4-21.4-4.2-27.8,4.8
			C250-50.6,252.1-38.2,261.1-31.9z"/>
		<path class="st2" d="M301.4,64.2c11,0.9,44.4-16.3,44.4-16.3s-30.1-22.5-41.1-23.4c-10.9-1.2-20.8,6.8-21.9,17.7
			c-1.2,10.9,6.8,20.8,17.7,21.9C300.8,64.2,301.1,64.2,301.4,64.2L301.4,64.2z"/>
		<path class="st2" d="M348.2,130.1c10.7,2.8,46.5-8.5,46.5-8.5s-25.9-27.3-36.5-30.1c-10.7-2.6-21.5,4-24.1,14.7
			C331.7,116.6,337.9,127.2,348.2,130.1L348.2,130.1z"/>
		<path class="st2" d="M347.3-37.1c-4.4,10.1-35.6,31.2-35.6,31.2s-5.3-37.2-0.9-47.3c4.3-10.1,16-14.9,26.1-10.6
			c10.1,4.3,14.9,16,10.6,26.1C347.5-37.5,347.4-37.3,347.3-37.1z"/>
		<path class="st2" d="M401.1,40.6c-7.3,8.3-43.3,19.1-43.3,19.1s6.1-37.1,13.4-45.4c7.3-8.3,19.8-9.1,28.1-1.8
			C407.5,19.7,408.4,32.3,401.1,40.6z"/>
		<path class="st2" d="M443.1,123.3c-5.8,9.4-39.4,26.1-39.4,26.1s-0.3-37.6,5.5-47c5.8-9.4,18-12.3,27.4-6.6
			S448.9,113.9,443.1,123.3L443.1,123.3z"/>
	</g>
	<g id="_x31_cf578eb-5ffb-4cd7-95b8-45aaaddab7e0">
		
			<linearGradient id="SVGID_1_" gradientUnits="userSpaceOnUse" x1="812.325" y1="116.68" x2="812.325" y2="612.92" gradientTransform="matrix(1 0 0 -1 -41.9 580.3799)">
			<stop  offset="0" style="stop-color:#808080;stop-opacity:0.25"/>
			<stop  offset="0.54" style="stop-color:#808080;stop-opacity:0.12"/>
			<stop  offset="1" style="stop-color:#808080;stop-opacity:0.1"/>
		</linearGradient>
		<path class="st4" d="M1246.1,456.6V-32.5H294.8v461.1c12.1,10.1,26.8,18.7,42,25.7c7.5,3.5,15.2,6.6,23,9.5h875L1246.1,456.6z"/>
		<path class="st5" d="M1244.3,456.8V-18.5H296.8v448.1c12.1,9.9,26.6,18.2,41.8,25c7.5,3.3,15.1,6.4,22.9,9.2h871.4L1244.3,456.8z"
			/>
		<rect x="296.8" y="-31.2" class="st6" width="947.4" height="25.1"/>
	</g>
	<g id="_x36_703b009-63cb-4af0-a0d7-9948e224c180">
		<circle class="st5" cx="315.8" cy="-18.6" r="6.5"/>
		<circle class="st5" cx="333.3" cy="-18.6" r="6.5"/>
		<circle class="st5" cx="350.8" cy="-18.6" r="6.5"/>
	</g>
	<g id="_x38_c4e1fb4-b9ff-4530-b767-610e84618ea6">
		<rect x="539" y="49.2" class="st2" width="156.5" height="98.3"/>
		<rect x="322.3" y="49.2" class="st7" width="156.5" height="98.3"/>
		<rect x="755.6" y="49.2" class="st7" width="156.5" height="98.3"/>
		<rect x="322.3" y="189.8" class="st7" width="156.5" height="98.3"/>
		<rect x="539" y="189.8" class="st7" width="156.5" height="98.3"/>
		<rect x="755.6" y="189.8" class="st7" width="156.5" height="98.3"/>
		<rect x="322.3" y="330.4" class="st7" width="156.5" height="98.3"/>
		<rect x="539" y="330.4" class="st7" width="156.5" height="98.3"/>
		<rect x="755.6" y="330.4" class="st7" width="156.5" height="98.3"/>
	</g>
	<g id="_x35_f43f84a-a268-4bb5-a31a-6b0c09aee323">
		<path class="st0" d="M985.2-97.9c0,0-38-2.3-33.6,24.4c0,0-0.9,4.7,3.4,6.8c0,0,0.1-2,3.9-1.3c1.4,0.2,2.8,0.3,4.1,0.2
			c1.9-0.1,3.6-0.9,5-2.1l0,0c0,0,10.7-4.4,14.8-21.9c0,0,3.1-3.8,3-4.8l-6.4,2.8c0,0,2.2,4.6,0.5,8.5c0,0-0.2-8.3-1.4-8.1
			c-0.2,0-3.3,1.6-3.3,1.6s3.8,8.1,0.9,13.9c0,0,1.1-9.9-2.1-13.3l-4.5,2.7c0,0,4.4,8.3,1.4,15.1c0,0,0.8-10.4-2.4-14.5l-4.1,3.2
			c0,0,4.1,8.2,1.6,13.8c0,0-0.3-12.2-2.5-13.1c0,0-3.6,3.2-4.1,4.5c0,0,2.8,6,1.1,9.1c0,0-1.1-8.1-2-8.1c0,0-3.6,5.4-3.9,9
			c0.2-3.4,1.2-6.7,3.1-9.6c-2.1,0.4-4,1.4-5.5,2.8c0,0,0.5-3.8,6.3-4.1c0,0,3-4.1,3.7-4.3c0,0-5.8-0.5-9.2,1.1c0,0,3.1-3.6,10.3-2
			l4-3.3c0,0-7.6-1-10.8,0.1c0,0,3.7-3.2,11.9-0.9l4.4-2.6c0,0-6.5-1.4-10.3-0.9c0,0,4.1-2.2,11.6,0.2l3.2-1.4c0,0-4.7-0.9-6.1-1.1
			c-1.4-0.1-1.5-0.5-1.5-0.5c3-0.5,6.1-0.2,8.9,1C978.6-95,985.3-97.4,985.2-97.9z"/>
		<path class="st0" d="M931-119.5c0,0-32,20.7-12.6,39.5c0,0,2.1,4.3,6.8,3.5c0,0-1.1-1.6,2.4-3.4c1.2-0.6,2.4-1.4,3.5-2.3
			c1.4-1.2,2.4-2.8,2.8-4.7l0,0c0,0,6-9.9-1-26.4c0,0,0.2-4.9-0.5-5.6l-3.5,6c0,0,4.5,2.4,5.4,6.5c0,0-5.1-6.6-6-5.7
			c-0.2,0.2-1.7,3.3-1.7,3.3s7.8,4.3,9,10.7c0,0-5-8.7-9.6-9.5l-2.1,4.8c0,0,8.5,4.1,10.1,11.3c0,0-5.6-8.9-10.5-10.3l-1.4,5
			c0,0,8.2,4.2,9.5,10.2c0,0-7.5-9.6-9.8-9c0,0-1,4.7-0.7,6c0,0,5.8,3.1,6.3,6.7c0,0-5.7-5.9-6.4-5.4c0,0,0.3,6.4,2.2,9.6
			c-1.9-2.8-3-6.1-3.2-9.5c-1.4,1.5-2.4,3.5-2.7,5.5c0,0-1.8-3.4,2.7-7.1c0,0,0-5,0.5-5.7c0,0-4.9,3-6.8,6.3c0,0,0.4-4.7,7.2-7.7
			l1.3-5.1c0,0-6.7,3.7-8.6,6.5c0,0,1.1-4.7,9.1-7.7l2-4.7c0,0-6,2.7-8.8,5.4c0,0,2-4.2,9.5-6.7l1.7-3c0,0-4.4,2.1-5.6,2.8
			s-1.5,0.4-1.5,0.4c2.1-2.2,4.8-3.7,7.8-4.5C927.4-113.2,931.3-119.2,931-119.5z"/>
		<path class="st0" d="M882.3-95.4c0,0-19.1,33,6.7,40.9c0,0,3.8,2.9,7.6,0c0,0-1.7-0.9,0.6-4.1c0.8-1.1,1.5-2.3,2-3.6
			c0.7-1.7,0.9-3.6,0.4-5.4l0,0c0,0,0.8-11.5-12.9-23.1c0,0-2-4.5-3-4.8l-0.4,7c0,0,5.1,0.1,7.8,3.4c0,0-7.5-3.6-7.9-2.4
			c-0.1,0.2-0.1,3.7-0.1,3.7s9,0.3,13,5.5c0,0-8.4-5.4-12.9-4.1l0.3,5.2c0,0,9.4-0.2,14.2,5.5c0,0-9-5.4-14-4.4l1,5.1
			c0,0,9.2,0,13.1,4.8c0,0-11-5.2-12.8-3.6c0,0,1.2,4.6,2.1,5.7c0,0,6.6,0.1,8.6,3.1c0,0-7.7-2.7-8.1-1.9c0,0,3.2,5.6,6.3,7.6
			c-3-1.7-5.4-4.1-7.2-7c-0.6,2-0.5,4.2,0.1,6.2c0,0-3.1-2.2-0.8-7.5c0,0-2.3-4.5-2.2-5.3c0,0-3,4.9-3.2,8.7c0,0-1.8-4.3,2.9-10.1
			l-1.1-5.1c0,0-4.3,6.3-4.8,9.7c0,0-1.2-4.7,4.6-11l-0.4-5.1c0,0-4.1,5.2-5.4,8.8c0,0-0.1-4.6,5.4-10.3l0.2-3.5c0,0-3,3.8-3.7,5
			s-1.1,1-1.1,1c0.9-2.9,2.6-5.5,4.9-7.5C882-88.2,882.7-95.3,882.3-95.4z"/>
	</g>
	<path class="st2" d="M1046.5,280.8c-7.9,0-14.3,6.4-14.3,14.3s6.4,14.3,14.3,14.3s14.3-6.4,14.3-14.3l0,0
		C1060.8,287.2,1054.4,280.9,1046.5,280.8z M1004.7,168.5v14.3h14.3l25.8,52.2l-10.8,17.5c-1.2,2.1-1.8,4.4-1.8,6.8
		c0,9.6,6.5,14.3,15.4,14.3h83.7v-13.8h-81.9c-0.9,0.1-1.7-0.7-1.8-1.6c0-0.1,0-0.1,0-0.2c0.2-0.6,0.4-1.2,0.8-1.8l7.2-11.3h53.3
		c5.3,0,10.1-2.9,12.5-7.5l25.8-44.3c0.5-1.1,0.7-2.3,0.7-3.6c0-3.8-3.2-6.8-7-6.8c-0.1,0-0.1,0-0.2,0h-105.9l-6.8-14.3
		L1004.7,168.5z M1117,280.8c-7.9,0-14.3,6.4-14.3,14.3c0,7.9,6.4,14.3,14.3,14.3c7.9,0,14.3-6.4,14.3-14.3
		C1131.3,287.2,1124.9,280.8,1117,280.8z"/>
</g>
<title>add to cart</title>
<g>
	<ellipse class="st8" cx="567.1" cy="499.4" rx="72.8" ry="9.5"/>
	<g id="_x32_796dd85-6618-42ad-b8a0-d6b4cc80ab2d">
		
			<linearGradient id="SVGID_2_" gradientUnits="userSpaceOnUse" x1="625.7318" y1="79.0099" x2="625.7318" y2="495.7617" gradientTransform="matrix(1 0 0 -1 -41.9 580.3799)">
			<stop  offset="0" style="stop-color:#808080;stop-opacity:0.25"/>
			<stop  offset="0.54" style="stop-color:#808080;stop-opacity:0.12"/>
			<stop  offset="1" style="stop-color:#808080;stop-opacity:0.1"/>
		</linearGradient>
		<path class="st9" d="M633.3,229.5c0,0-18.4-33.5-15.3-39c3.1-5.5,5.4-13.4,5.4-13.4s6.8-4.6,6.8-6.5s5.4-6.3,8.2-8.2
			c2.8-1.9,1.4-10.9,0-12s-3.6-4.9-3.6-4.9s2-5.5,0-7.1c-2-1.6,0.3-3.3,0-4.9s0-7.6,0-7.6c-2.3-3.2-4.8-4.7-7.2-5.2l-0.2-0.9
			l-1.2-5.1c0,0,5.9-11.3-3.7-17.2c-0.7-0.4-1.4-0.8-2.1-1.1c0,0,0-0.3-0.1-0.7c-0.1-1.7-0.5-5.9-1.4-8.6c-0.5-1.6-1.1-2.6-2-2.4
			c-0.2,0.1-0.4,0.2-0.5,0.3c-0.4,0.4-0.7,0.8-1,1.2l0,0c0,0,0,0.1,0,0.1l0,0c-1.1,1.9-1.8,4-2.2,6.2c-0.3,1.3-0.5,2.6-0.7,3.9l0,0
			c-0.4,0.8-0.8,1.6-1.1,2.4c-1.2,3-2.5,8.2,0,12c2.1,3.3,4.9,7.7,6.9,11l0.1,0.1l0.1,0.2l-0.2,0.1v0.5l0.2,2.7l1.6,23.7
			c-0.5-0.1-1-0.2-1.4-0.3c-0.7-0.1-1.4-0.1-2.1-0.1c-1.4-5.4-5.2-10.4-5.9-16.1c-0.1-0.6-0.1-1.1-0.1-1.7c0.1-3.6,0.9-7.1,0.9-10.7
			c0-0.7,0-1.3-0.1-2l0,0c0-0.2,0-0.4-0.1-0.5c-0.7-5.2-4-9.8-8.7-12.2c-1.6-0.8-3.4-1.4-5-2.3c-3.7-2.1-6-5.8-9.4-8.3
			c-2.5-1.9-6.2-2.9-9-2c-1.5,0.2-2.9,0.5-4.4,0.9l0,0c-3.5,0.9-6.9,2.3-10,4.2c-0.4,0.3-0.8,0.5-1.3,0.8c-0.9,0.6-1.6,1.4-2,2.4
			c-0.3,0.8-0.4,1.7-0.3,2.5c0,0.6,0,1.3,0,1.9c-0.2,10.4-11.4,18.5-12.4,28.7c0,0.2,0,0.5-0.1,0.7c0,0.1,0,0.1,0,0.2
			c0,0.3,0,0.6,0,0.9l0,0c0,0.1,0,0.3,0,0.4s0,0.3,0,0.4c0.2,4.5,2.5,8.6,2.9,13.1c0,0.4,0.1,0.8,0.1,1.2c-0.1,2-0.5,4.1-1.2,6
			c-1.4,0.4-2.8,0.9-4.1,1.6c-3.4,2.2-9.6,6-11.8,13.3c-0.6,1.9-0.9,3.8-0.9,5.8c0,7-0.7,13.9-1.9,20.8c-0.3,1.7-0.7,3.4-1.2,5.1
			c0,0.2-0.1,0.3,0,0.5l-1.4,17.6l-0.2,3.1l-0.3,4.4c0,0,0.1,0.3,0.2,0.7c0.2,0.7,0.4,1.3,0.5,2c0.4,1.5,0.4,3.1,0.2,4.6
			c-0.1,0.6-0.5,1.2-1,1.7c0,0-0.1,0.1-0.1,0.1c-0.4,0.5-0.7,2.2-1,4.5c-0.1,0.9-0.2,2-0.3,3c-0.7,7-1.1,17.4-1.3,26
			c-0.2,8.5-0.3,15.2-0.3,15.2c1.1,0.7,2.3,1.3,3.5,1.7c-0.1,0.2-0.2,0.5-0.3,0.7c-1.1,2.9-1.8,5.9-2.1,9
			c-0.5,6.4,1.2,13.5,10.2,17.2c0.6,0.2,1.2,0.4,1.8,0.6c2,0.5,3.4,0.4,4.5-0.3c0,0.4,0,0.8,0.1,1.1c0.1,1.6,0.2,3,0.2,4.3
			c0.3,7.6,2.2,21,2.2,21s0.7,5.5,0.1,7.1c-0.6,1.6,0,8.2,0,8.2s2,3.3,0,4.9c-2,1.6-2.5,9.8-2,10.9c0,0,0,0.1,0,0.1
			c0.4,2.7-2,43-2,43s-2.3,6.2-4.1,12.6c-1.8,6.2-3.1,12.7-1.5,13.9c0.8,0.6,2.7,1.1,5.2,1.4c0,0.3,0,0.5-0.1,0.8
			c-0.2,2.9-0.6,6-1.1,6.8c-0.8,1.1-1.6,9.7-2,14.4l0,0.5c-0.8,2-1.5,4-2.1,6.1c0,0-6.2,15.7-4.1,19.7c0.2,0.4,0.5,0.7,0.8,1l0,0
			c0.1,0.1,0.1,0.1,0.2,0.2c3,2.4,10.5,2.9,13.3,3l-0.1,3.9v0.1h3.6v-0.1c0-0.5,0.1-2.7,0.2-5.7c0-0.5,0-1.1,0.1-1.7
			c0-0.5,0-0.9,0.1-1.4c1-2.8,1.6-5.7,1.5-8.7c0-3.4,0.5-6.8,1.4-10.1c0.4-1.7,1.1-3.3,1.8-4.9c0,0,1.1-5.9-0.4-10
			c-0.3-0.8-0.7-1.6-1.3-2.3c0-0.1,0-0.3,0-0.4s0-0.3,0-0.5s0-0.3,0-0.4c0-2.8,0.2-5.6,0.8-8.4c0,0,0-0.1,0-0.1
			c0.1-0.2,0.1-0.4,0.2-0.7l0-0.1l1.2,0c3.5,0.1,6.1,0.1,6.1,0.1s2.8-14.5,2.5-20.7c0-0.3,0-0.6,0-0.8c-0.1-6.2,1.7-14.7,1.7-14.7
			l2.3-22.1c0,0-1.1-3.8,0-6.5c0.7-1.7,2.1-4.8,3.1-7c0.5-1,0.8-1.8,1-2.1l0.1-0.2c-0.4-0.1-0.7-0.3-1-0.5l0,0
			c-0.9-0.6-1.7-1.8,1-3.6c4.2-2.7,2.8-9.5,2.8-9.5s-1.2-2.5,0.2-4.6c1.5-2.2,0-10.4,0-10.4c1.2-2.2,2.2-4.4,2.9-6.8
			c1.1-3.3,3.7-19.2,5-26.9c0.4-2.5,0.7-4.2,0.7-4.2l0,0.4l0,0.4l0,0l0.4,3.6l0,0.5l0.7,6.9c0,0,1.3,18.1,0.5,25.2c0,0,0,0.1,0,0.1
			c-0.1,0.7-0.2,1.5-0.5,2.1c-1.5,3.4-1.2,16.9-1.1,19.9c0,0.2,0,0.4,0,0.6s-1.1,2.7-0.8,4.6l0,0c0.1,0.5,0.2,1,0.5,1.4
			c0.4,0.6,0.6,1.4,0.5,2.1v0.1c0,0.3,0,0.6-0.1,0.9c-0.2,1.3-0.5,2.5-1,3.7c0,0-1.5,4-0.9,6.1l0,0c0.1,0.3,0.2,0.5,0.4,0.7
			c0.1,0.2,0.2,0.5,0.2,0.8c0,0,0,0,0,0.1c0.5,4.4-0.8,23.8-1.6,34.4c-0.3,4.2-0.6,7-0.6,7l-2.2,23.2l0.2,0.2
			c0.3,0.2,0.7,0.5,1.4,0.9c0,0,0,0,0,0.1l-0.1,0.7c-0.3,2.2-0.8,4.8-1.2,6.8c0,0.2-0.1,0.3-0.1,0.4c-0.9,0.1-1.7,0.5-2.4,1
			c-4.8,8.4-2.7,15.1,0,17.1c0.8,0.5,1.3,2.1,1.6,4l0.7,8.4c0,0.3,0,0.7,0,1c0,0.3,0,0.5,0.1,0.8l0.2,2.6l0.3,3.6h2.2v-4.3h0.1
			c3.4,0.1,8.9,0.3,11.3,0.1h0.1c0.3,0,0.5,0,0.7-0.1c0.1,0,0.3-0.1,0.4-0.1c1.3-0.6,4.4-9.6,1.6-11.7s-3.5-7.8-3.5-7.8
			c-0.2-0.8-0.5-1.5-0.8-2.2c0-0.2,0-0.3,0-0.4c-0.1-2.8,0-5.8,0.3-7.5c0.4-1.8,0.7-5.6,0.7-8.9c0-0.3,0-0.5,0-0.8v-0.1
			c0.5-0.1,1-0.3,1.5-0.5l0.1,0c0.9-0.4,1.7-0.9,2.4-1.4l8-35.4l0.8-4.1l4.8-23.4c0,0-1.7-8.2,0-9.5c0.6-0.5,0.8-2.6,0.8-5.1
			c-0.1-4.3-0.8-9.7-0.8-9.7s2.3-3.5,3.4-5.7c1.1-2.2,0-7.9,0-7.9l2.2-13.1c0,0,2.5-15.5,8.8-28.6c4.6-9.6,1.7-35.6-1.3-49.5
			c-0.1-0.4-0.2-0.7-0.2-1.1v-0.1c1.4-0.7,3.1-1.5,4.9-2.4l0.7-0.3c2.3-1.1,4.8-2.2,7-3.1l0.1-0.1c1.6-0.7,3.2-1.3,4.9-1.8
			c0.5-0.1,1-0.3,1.5-0.3C645.1,250.2,633.3,229.5,633.3,229.5z M544.9,273.8h1.2c-0.1,0.3-0.3,0.5-0.4,0.8
			c-0.1,0.2-0.2,0.3-0.2,0.5c-0.4,0.9-0.8,1.8-1.2,2.7c0.1-1,0.3-2,0.5-3.1C544.9,274.4,544.9,274.1,544.9,273.8z M541.8,290.8
			C541.8,290.8,541.8,290.8,541.8,290.8l-0.1-0.4c-0.1-0.2-0.1-0.4-0.2-0.7c0.4-0.1,0.8-0.3,1.2-0.4h0.1c0,0.1,0,0.1,0,0.2
			c0,0.3-0.1,0.6-0.1,0.9l0,0c0,0,0,0.1,0,0.1c0,0.2-0.1,0.5-0.1,0.7c-0.1,0.5-0.1,0.9-0.2,1.4c-0.1-0.4-0.2-0.8-0.4-1.2
			C541.9,291.3,541.8,291,541.8,290.8L541.8,290.8z"/>
		<path class="st10" d="M626.5,124.8l-7.1,2.5l-2.6-4.2c-2-3.3-4.7-7.7-6.7-11c-3.5-5.7,1.1-14.4,1.1-14.4s0.8-8.7,3.8-11.4
			c3-2.7,3.8,11.4,3.8,11.4c12,5.4,5.5,18.2,5.5,18.2l1.2,5.1L626.5,124.8z"/>
		<path class="st11" d="M626.5,124.8l-7.1,2.5l-2.6-4.2v-0.4c0,0,4-2.8,8.8-1.7L626.5,124.8z"/>
		<path class="st12" d="M615.1,153.4l3.5-3l-1.8-26.9c0,0,9.1-6.3,15.9,3.5c0,0-0.3,6,0,7.6s-1.9,3.3,0,4.9c1.9,1.6,0,7.1,0,7.1
			s2.1,3.8,3.5,4.9c1.4,1.1,2.7,10.1,0,12c-2.7,1.9-7.8,6.3-7.8,8.2s-6.5,6.5-6.5,6.5l-5.7-7.6L615.1,153.4z"/>
		<path class="st10" d="M538.7,316.8c-13.2-5.6-10.2-19.2-7.8-26.1c0.5-1.4,1.1-2.8,1.7-4.1l7.4-4.5c0,0,1.5,3.8,3.1,9
			C547,303.1,551.3,322.1,538.7,316.8z"/>
		<path class="st10" d="M556.9,441.3c-0.9,1.7-1.6,3.6-2,5.5c-0.7,3.1-0.9,6.2-0.8,9.4c0.1,2.2,0.2,3.6,0.2,3.6l-14.7,10.1
			c0,0,0.1-1.2,0.2-2.9c0.4-4.6,1.2-13.2,1.9-14.3c0.5-0.8,0.9-3.9,1.1-6.7c0.2-2.9,0.3-5.4,0.3-5.4S560.8,433.9,556.9,441.3z"/>
		<path class="st10" d="M591.5,448.6c0,0,0,2.8-0.1,6.1c-0.1,3.3-0.3,7.1-0.7,8.9c-0.4,1.6-0.4,4.7-0.3,7.5c0.1,3.3,0.3,6.2,0.3,6.2
			s-15-14.2-13.5-15.3c0.4-0.3,0.8-1.5,1.2-3.1c0.5-2,0.9-4.6,1.2-6.8c0.4-2.6,0.6-4.8,0.6-4.8L591.5,448.6z"/>
		<path class="st11" d="M556.9,441.3c-0.9,1.7-1.6,3.6-2,5.5c-4-0.1-8-0.4-12-0.9c0.2-2.8,0.3-5.4,0.3-5.4S560.8,433.9,556.9,441.3z
			"/>
		<path class="st11" d="M591.5,448.6c0,0,0,2.8-0.1,6.1c-4.7,1.2-9.5-1.2-11.8-2.6c0.4-2.6,0.6-4.8,0.6-4.8L591.5,448.6z"/>
		<path class="st13" d="M622.2,309.7c-6,13.1-8.4,28.5-8.4,28.5l-2.2,13.1c0,0,1.1,5.7,0,7.9c-1.1,2.2-3.3,5.7-3.3,5.7
			s1.6,13.3,0,14.7s0,9.5,0,9.5l-5.4,27.4l-7.6,35.3c-7.3,6-17.1-1.6-17.1-1.6l2.2-23.1c0,0,3.3-40.5,1.9-42.1
			c-1.4-1.7,0.5-6.8,0.5-6.8s1.9-4.9,0.5-6.8c-1.4-1.9,0.3-6,0.3-6s-0.5-16.6,1.1-20.4s0-27.3,0-27.3l-0.7-7.3l-0.4-4.1l0-0.4
			c0,0-0.2,1.6-0.7,4.1c-1.2,7.7-3.8,23.6-4.8,26.8c-0.7,2.4-1.6,4.6-2.8,6.8c0,0,1.4,8.2,0,10.3c-1.4,2.2-0.2,4.6-0.2,4.6
			s1.4,6.8-2.7,9.5c-4.1,2.7,0,4.1,0,4.1s-3,6.5-4.1,9.2c-1.1,2.7,0,6.5,0,6.5l-2.2,22c0,0-1.9,9.2-1.6,15.5
			c0.3,6.3-2.4,20.7-2.4,20.7s-20.9,0-24.2-2.4c-3.2-2.4,5.4-26.3,5.4-26.3s2.4-41.9,1.9-42.9c-0.5-1.1,0-9.2,1.9-10.9
			c1.9-1.6,0-4.9,0-4.9s-0.5-6.5,0-8.2c0.5-1.6-0.1-7.1-0.1-7.1s-1.8-13.3-2.1-20.9c-0.3-7.6-1.6-24.7-1.6-24.7s1.4-10.6,1.6-15.6
			c0.1-1.9,0.9-4.2,2-6.4c1.2-2.5,2.5-4.8,4-7.1c0,0,64.4-19,67.1-17.1c0.7,0.5,1.8,3.9,2.8,8.9
			C623.8,274.2,626.6,300.1,622.2,309.7z"/>
		<circle class="st14" cx="582.5" cy="124.8" r="18.8"/>
		<path class="st11" d="M620.9,260.4c-2.2,1.1-3.6,1.9-3.6,1.9s-30.4,14.4-39.1,13.6c-6.7-0.7-23.8-0.3-31.2-0.1
			c1.2-2.5,2.5-4.8,4-7.1c0,0,64.4-19,67.1-17.1C618.8,252,619.9,255.4,620.9,260.4z"/>
		<path class="st12" d="M569.5,154.8c0,0-17.4,2.7-21.5,5.4c-4.1,2.7-12.2,7.9-12.2,19s-1.9,22.6-3,25.8
			c-1.1,3.3,17.1,29.6,17.1,29.6l-6.5,40c0,0,26.1-0.8,34.8,0c8.7,0.8,39.1-13.6,39.1-13.6s17.9-9.5,21.7-9.8
			c3.8-0.3-7.6-20.9-7.6-20.9s-17.7-33.4-14.7-38.9c3-5.4,5.2-13.3,5.2-13.3l-3.3-27.7c0,0-4.9-1.6-9,1.4c-4.1,3-17.9,1.4-17.9,1.4
			L569.5,154.8z"/>
		<path class="st11" d="M540,203.2l-6.8,1.9l-1.9,25.6c0,0,2.4,6.8,0,9c-2.4,2.2-3,48.7-3,48.7s7.9,5.7,17.1,1.4
			c0,0-1.4-5.2,2.7-23.9c4.1-18.8,4.1-28.3,4.1-28.3s0-23.4,1.9-27.2c1.9-3.8,0-13.3,0-13.3s-3.8-5.2-3.5-7.1S540,203.2,540,203.2z"
			/>
		<path class="st11" d="M543.2,291.1c-4,1.3-8.4,1.2-12.3-0.4c0.5-1.4,1.1-2.8,1.7-4.1l7.4-4.5C540.1,282.1,541.6,286,543.2,291.1z"
			/>
		<path class="st12" d="M539.6,203.2l-6.8,1.9l-1.9,25.6c0,0,2.4,6.8,0,9c-2.4,2.2-3,48.7-3,48.7s7.9,5.7,17.1,1.3
			c0,0-1.4-5.2,2.7-23.9c4.1-18.8,4.1-28.3,4.1-28.3s0-23.4,1.9-27.2c1.9-3.8,0-13.3,0-13.3s-3.8-5.2-3.5-7.1
			S539.6,203.2,539.6,203.2z"/>
		<path class="st11" d="M609.1,207.2c0,0-3.5,30.4-13.9,36.2C595.3,243.4,618.4,236.9,609.1,207.2z"/>
		<path class="st11" d="M557.2,209.9c0,0,12.8,6.2,9.8,10.6C564,224.9,557.2,209.9,557.2,209.9z"/>
		<path class="st11" d="M557.2,222.5c0,0,8.2,8.4,6.5,11.4S557.2,222.5,557.2,222.5z"/>
		<path class="st11" d="M623,152.6c0,0,3.2,5.4,3.5,9S623,152.6,623,152.6z"/>
		<path class="st11" d="M623,145.3c0,0,1.6-1.4,5.7,0C632.8,146.6,623,145.3,623,145.3z"/>
		<path class="st11" d="M607.3,304.1c-6.7,1-13.6,0.1-19.9-2.5l-3.4,8.8l-0.4-4.1c0.6-3.4,1.7-7.1,3.8-8
			C587.4,298.3,595,304.3,607.3,304.1z"/>
		<path class="st11" d="M551.6,315.5c0,0,16.7,3.5,21.4,2.9L551.6,315.5z"/>
		<path class="st11" d="M553.3,319.9c0,0,7.1-0.3,10.7,1.1L553.3,319.9z"/>
		<path class="st11" d="M554.1,322.9c3.3,0.7,6.6,1.1,9.9,1.3L554.1,322.9z"/>
		<path class="st11" d="M553.7,360.3c0.3-0.2,14.3-3.5,16-1.1L553.7,360.3z"/>
		<path class="st11" d="M553.7,364.6c0,0,12.1-1.4,12.4,0S553.7,364.6,553.7,364.6z"/>
		<path class="st11" d="M553.7,368.4c0,0,12.9-2.7,14.5-2C569.7,367.1,553.7,368.4,553.7,368.4z"/>
		<path class="st11" d="M554.3,459.8l-14.7,10.1c0,0,0.1-1.2,0.2-2.9c3.3-8,7.5-12.3,7.5-12.3c3.3-0.9,5.4-0.1,6.7,1.5
			C554.1,458.3,554.3,459.8,554.3,459.8z"/>
		<path class="st13" d="M555.7,468.8c-2.1,4.7-3.1,9.8-3.1,15c0.1,4.2-1,8.4-3.1,12.1c-0.3,0.5-0.7,1-1,1.5c0,0-10.2-0.1-13.8-3
			c-0.4-0.3-0.7-0.7-1-1.2c-2-4.1,4-19.7,4-19.7c3.2-12,9.6-18.4,9.6-18.4C558.8,452.1,555.7,468.8,555.7,468.8z"/>
		<path class="st11" d="M549.6,495.9c-0.3,0.5-0.7,1-1,1.5c0,0-10.2-0.1-13.8-3c1.8-5.8,7.4-23.4,10-20.4
			C547.2,476.7,548.9,490.3,549.6,495.9z"/>
		<path class="st13" d="M548.2,475l-0.7,26.3h3.4c0,0,0.6-23.1,2.1-26.3C554.5,471.8,548.2,475,548.2,475z"/>
		<path class="st11" d="M590.7,477.2c0,0-15-14.2-13.5-15.3c0.4-0.3,0.8-1.5,1.2-3.1c2.9-0.5,7.8,0.7,11.9,12.2
			C590.5,474.3,590.7,477.2,590.7,477.2z"/>
		<path class="st13" d="M592.9,493c-0.1,0-0.2,0.1-0.4,0.1c-1.8,0.3-8.3,0.1-11.9,0c-1.4,0-2.5-1.2-2.5-2.6c0-1,0-2.2-0.1-3.4
			c-0.2-4-0.7-8.8-2.1-9.9c-2.6-2-4.6-8.6,0-17c0,0,8.8-6.7,15.1,13.4c0,0,0.6,5.7,3.4,7.8C597.2,483.4,594.2,492.4,592.9,493z"/>
		<path class="st11" d="M592.6,493.1c-1.8,0.3-8.3,0.1-11.9,0c-1.4,0-2.5-1.2-2.5-2.6c0-1,0-2.2-0.1-3.4c1.1-4.9,2.7-9.9,4.7-11
			C582.8,476.1,589,475.4,592.6,493.1z"/>
		<polygon class="st13" points="577.1,475.5 578.8,497.4 580.9,497.4 580.9,473.6 		"/>
		<path class="st11" d="M582.2,94.9c-5.9,0.4-11.7,2.3-16.7,5.4c-1.3,0.8-2.6,1.7-3.2,3.2c-0.5,1.2-0.3,2.6-0.3,3.9
			c0.2,11.2-12.4,19.7-12,31c0.2,4.5,2.4,8.6,2.8,13.1c0.7,7.4-3.7,14.2-7.9,20.4c4.3,0.3,8.6-1.2,11.9-3.9
			c4.4,14.8,5,30.5,1.7,45.5h6c0.6,0,1.2,0,1.8,0.2c0.5,0.3,1,0.6,1.4,1c5.6,5.6,9.4,13.9,7.2,21.5l12.8-4.8
			c3.1-1.1,6.2-2.3,8.8-4.2c2.7-1.9,4.9-4.6,5.5-7.9c0.3-2,0.2-4.3,1.8-5.4c0.8-0.4,1.6-0.7,2.5-0.9c3.5-1.2,5.1-5.3,5.8-9
			c0.9-4.5,1.1-9.1,0.8-13.6c-0.6-7.6-2.8-15.4-1-22.8c1.1-4.2,3.4-8.1,3.6-12.4c0.3-7.1-5.3-13.3-6.1-20.3
			c-0.6-4.9,1.2-9.9,0.6-14.9c-0.7-5.2-3.8-9.7-8.4-12.1c-1.6-0.8-3.3-1.4-4.8-2.2c-3.5-2.1-5.8-5.8-9-8.3c-3.2-2.5-8.6-3.5-11-0.2
			L582.2,94.9z"/>
		<path class="st15" d="M582.2,94.1c-5.9,0.4-11.7,2.3-16.7,5.4c-1.3,0.8-2.6,1.7-3.2,3.2c-0.5,1.2-0.3,2.6-0.3,3.9
			c0.2,11.2-12.4,19.7-12,31c0.2,4.5,2.4,8.6,2.8,13.1c0.7,7.4-3.7,14.2-7.9,20.4c4.3,0.3,8.6-1.2,11.9-3.9
			c4.4,14.8,5,30.5,1.7,45.5h6c0.6,0,1.2,0,1.8,0.2c0.5,0.2,1,0.6,1.4,1c5.6,5.6,9.4,13.9,7.2,21.5l12.8-4.8
			c3.1-1.1,6.2-2.3,8.8-4.2c2.7-1.9,4.9-4.6,5.5-7.9c0.3-2,0.2-4.3,1.8-5.4c0.8-0.4,1.6-0.7,2.5-0.9c3.5-1.2,5.1-5.3,5.8-9
			c0.9-4.5,1.2-9.1,0.8-13.6c-0.6-7.6-2.8-15.4-1-22.8c1.1-4.2,3.4-8.1,3.6-12.4c0.3-7.1-5.3-13.3-6.1-20.3
			c-0.6-4.9,1.2-9.9,0.6-14.9c-0.7-5.2-3.8-9.7-8.4-12.1c-1.6-0.8-3.3-1.4-4.8-2.2c-3.5-2.1-5.8-5.8-9-8.3c-3.2-2.5-8.6-3.5-11-0.2
			L582.2,94.1z"/>
		<g class="st16">
			<path d="M562.1,103.9c0,0.3,0,0.5,0,0.8C562.1,104.4,562.1,104.1,562.1,103.9z"/>
			<path d="M609.5,130c0.2-3.5,1-6.9,0.7-10.4C610,123.1,609.3,126.5,609.5,130z"/>
			<path d="M552.9,147.2c-0.4-4-2.3-7.8-2.7-11.9c-0.1,0.7-0.1,1.5-0.1,2.2c0.2,4.4,2.3,8.5,2.8,12.9
				C553,149.4,553,148.3,552.9,147.2z"/>
			<path d="M612.1,163.3c-0.6,2.7-0.8,5.4-0.7,8.1c0.1-1.6,0.3-3.2,0.7-4.7c1.1-4.2,3.4-8.1,3.6-12.4c0-0.8,0-1.5-0.1-2.3
				C615.1,155.9,613.1,159.5,612.1,163.3z"/>
			<path d="M557,163.6c-2.7,2.3-6.1,3.7-9.6,3.9c-0.7,1.2-1.5,2.3-2.3,3.4c4.3,0.3,8.6-1.2,11.9-3.9c2.4,7.9,3.7,16.2,3.8,24.4
				C560.9,182,559.7,172.6,557,163.6z"/>
			<path d="M612.3,199.7c-0.7,3.7-2.3,7.7-5.8,9c-0.9,0.2-1.7,0.5-2.5,0.9c-1.6,1.1-1.5,3.5-1.8,5.4c-0.6,3.2-2.8,6-5.5,7.8
				s-5.8,3.1-8.8,4.2l-12.2,4.6c-0.1,1.2-0.3,2.4-0.6,3.6l12.8-4.8c3.1-1.1,6.2-2.3,8.8-4.2c2.7-1.9,4.9-4.6,5.5-7.9
				c0.3-2,0.2-4.3,1.8-5.4c0.8-0.4,1.6-0.7,2.5-0.9c3.5-1.2,5.1-5.3,5.8-9c0.7-3.8,1.1-7.7,0.9-11.6
				C613.1,194.3,612.8,197,612.3,199.7z"/>
			<path d="M567.8,210.4c-0.4-0.4-0.9-0.8-1.4-1c-0.6-0.2-1.2-0.3-1.8-0.2h-5.3c-0.2,1.1-0.4,2.3-0.7,3.4h6c0.6,0,1.2,0,1.8,0.2
				c0.5,0.2,1,0.6,1.4,1c4.1,4.1,7.2,9.6,7.8,15.3C576.2,222.3,572.7,215.3,567.8,210.4z"/>
		</g>
		<path class="st11" d="M538,232.6c0,0,4.9-2,5.9,0S538,232.6,538,232.6z"/>
		<path class="st11" d="M539.7,236.1c0,0,4.9-2,5.9,0C546.7,238.2,539.7,236.1,539.7,236.1z"/>
	</g>
</g>
<polygon class="st5" points="1098.7,208.1 1086.7,208.1 1086.7,196.1 1077.7,196.1 1077.7,208.1 1065.7,208.1 1065.7,217.1 
	1077.7,217.1 1077.7,229.1 1086.7,229.1 1086.7,217.1 1098.7,217.1 "/>
</svg>
